<?xml version="1.0" standalone="no"?>
<!DOCTYPE svg PUBLIC "-//W3C//DTD SVG 1.1//EN" "http://www.w3.org/Graphics/SVG/1.1/DTD/svg11.dtd" >
<svg xmlns="http://www.w3.org/2000/svg" xmlns:xlink="http://www.w3.org/1999/xlink" version="1.1">
<metadata>
Created by FontForge 20170924 at Tue Mar 13 20:17:33 2012
 By www-data
Nitti is a monospaced typeface family in five weights that has its roots in the first sans-serif designs of the 19th century  the Grotesques. Originally a British invention, the Grotesques gained massive popularity in mainland Europe and also became widespread in early 20th century USA where it was commonly referred to as O^GothicO~. The quirky and often idiosyncratic shapes of these designs lend them a humanity and warmth which is still appreciated among many graphic designers.
E^
Nitti is named after Francesco Raffaele Nitto, better known as Frank 'The Enforcer' Nitti, one of the henchmen of Al Capone. The typeface family is part of a bigger collection of Grotesque-inspired typefaces that also includes a poster version called 'Stanley' and a proportional version called 'Erminio'.
</metadata>
<defs>
<font id="Nitti-Light" horiz-adv-x="600" >
  <font-face 
    font-family="Nitti"
    font-weight="300"
    font-stretch="normal"
    units-per-em="1000"
    panose-1="2 0 5 9 3 0 0 2 0 4"
    ascent="780"
    descent="-220"
    x-height="432"
    cap-height="558"
    bbox="-36 -214 638 865"
    underline-thickness="50"
    underline-position="-153"
    stemh="55"
    stemv="59"
    unicode-range="U+0020-FB02"
  />
<missing-glyph 
d="M0 -178v810h600v-810h-600zM51 587v-720h498v720h-498zM295 132l-35 39c130 104 164 143 164 195s-33 98 -132 98c-83 0 -131 -32 -131 -98h-60c0 113 92 153 193 153c134 0 193 -71 193 -152c0 -83 -61 -140 -192 -235zM239 -50v122h102v-122h-102z" />
    <glyph glyph-name="fi" unicode="fi" 
d="M134 0v378h-108v54h108c0 122 52 200 207 200v-54c-97 0 -148 -31 -148 -146h124v-54h-124v-378h-59zM401 0v432h59v-432h-59zM389 551v81h81v-81h-81z" />
    <glyph glyph-name="fl" unicode="fl" 
d="M134 0v378h-108v54h108c0 122 52 200 207 200v-54c-97 0 -148 -31 -148 -146h124v-54h-124v-378h-59zM401 0v632h59v-632h-59z" />
    <glyph glyph-name=".notdef" 
d="M0 -178v810h600v-810h-600zM51 587v-720h498v720h-498zM295 132l-35 39c130 104 164 143 164 195s-33 98 -132 98c-83 0 -131 -32 -131 -98h-60c0 113 92 153 193 153c134 0 193 -71 193 -152c0 -83 -61 -140 -192 -235zM239 -50v122h102v-122h-102z" />
    <glyph glyph-name="Eth" unicode="&#xd0;" 
d="M85 262v55h49v241h148c180 0 229 -125 229 -278c0 -157 -52 -280 -229 -280h-148v262h-49zM197 503v-186h120v-55h-120v-207h85c150 0 164 127 164 224s-14 224 -164 224h-85z" />
    <glyph glyph-name="eth" unicode="&#xf0;" 
d="M233 469v55l81 19l-42 89h62l34 -76l101 25v-55l-78 -19l63 -138c24 -52 46 -117 46 -181c0 -135 -98 -198 -201 -198c-100 0 -199 59 -199 206s99 206 197 206c50 0 80 -15 96 -26l-56 118zM300 43c108 0 140 74 140 153s-32 153 -140 153s-140 -74 -140 -153
s32 -153 140 -153z" />
    <glyph glyph-name="Lslash" unicode="&#x141;" 
d="M60 253v55l74 18v232h63v-217l99 24v-55l-99 -24v-231h286v-55h-349v271z" />
    <glyph glyph-name="lslash" unicode="&#x142;" 
d="M183 253v55l88 21v249h-153v54h212v-289l89 22v-55l-89 -22v-234h154v-54h-366v54h153v220z" />
    <glyph glyph-name="Scaron" unicode="&#x160;" 
d="M263 597l-89 191h40l86 -123l86 123h40l-89 -191h-74zM300 -10c-118 0 -200 55 -200 166h63c4 -69 51 -109 139 -109c79 0 135 33 135 98c0 46 -29 72 -84 91l-119 42c-74 26 -123 69 -123 144c0 97 82 147 186 147c106 0 184 -51 184 -164h-62c-3 91 -72 107 -124 107
c-79 0 -119 -37 -119 -89c0 -41 25 -69 76 -87l119 -42c89 -31 130 -70 130 -145c0 -111 -90 -159 -201 -159z" />
    <glyph glyph-name="scaron" unicode="&#x161;" 
d="M264 490l-89 191h40l86 -123l86 123h40l-89 -191h-74zM310 -10c-119 0 -194 49 -200 147h58c6 -54 47 -93 146 -93c68 0 115 18 115 70c0 57 -58 66 -158 90c-81 19 -147 39 -147 118c0 86 76 120 173 120c102 0 178 -38 186 -136h-58c-12 72 -77 82 -129 82
c-74 0 -112 -20 -112 -62c0 -54 63 -59 160 -82c87 -21 145 -44 145 -125c0 -96 -81 -129 -179 -129z" />
    <glyph glyph-name="Yacute" unicode="&#xdd;" 
d="M269 0v226l-221 332h73l90 -136l91 -144l90 144l88 136h73l-221 -334v-224h-63zM253 597l69 191h88l-118 -191h-39z" />
    <glyph glyph-name="yacute" unicode="&#xfd;" 
d="M88 -129c91 0 140 36 178 127l-185 434h65l153 -375l152 375h64l-186 -437c-56 -131 -121 -178 -241 -178v54zM253 490l69 191h88l-118 -191h-39z" />
    <glyph glyph-name="Thorn" unicode="&#xde;" 
d="M134 0v558h63v-111h85c142 0 228 -55 228 -170c0 -113 -85 -170 -228 -170h-85v-107h-63zM197 392v-230h86c118 0 162 50 162 115s-44 115 -162 115h-86z" />
    <glyph glyph-name="thorn" unicode="&#xfe;" 
d="M500 217c0 -158 -84 -227 -179 -227c-68 0 -109 35 -128 56v-224h-59v810h59v-246c16 19 57 56 127 56c93 0 180 -64 180 -225zM439 216c0 101 -39 171 -131 171c-75 0 -115 -46 -115 -46v-250s40 -46 115 -46c92 0 131 70 131 171z" />
    <glyph glyph-name="Zcaron" unicode="&#x17d;" 
d="M268 597l-89 191h40l86 -123l86 123h40l-89 -191h-74zM107 0v50l308 453h-303v55h377v-50l-309 -453h312v-55h-385z" />
    <glyph glyph-name="zcaron" unicode="&#x17e;" 
d="M263 490l-89 191h40l86 -123l86 123h40l-89 -191h-74zM118 0v44l278 334h-273v54h355v-44l-278 -333h283v-55h-365z" />
    <glyph glyph-name="onehalf" unicode="&#xbd;" 
d="M349 0v32c0 48 33 72 68 91l51 27c36 19 46 41 46 66c0 40 -24 52 -54 52c-39 0 -62 -20 -62 -71h-43c0 84 50 110 105 110c63 0 99 -34 99 -88c0 -36 -16 -72 -67 -100l-51 -28c-36 -20 -45 -31 -45 -54h166v-37h-213zM110 0l341 558h51l-341 -558h-51zM40 262v36h78
v212c-1 -1 -15 -19 -63 -19h-15v37h19c36 0 55 7 68 30h34v-260h70v-36h-191z" />
    <glyph glyph-name="onequarter" unicode="&#xbc;" 
d="M471 0v71h-157v31l155 193h45v-188h46v-36h-46v-71h-43zM130 0l341 558h51l-341 -558h-51zM40 262v36h78v212c-1 -1 -15 -19 -63 -19h-15v37h19c36 0 55 7 68 30h34v-260h70v-36h-191zM366 107h105v130z" />
    <glyph glyph-name="onesuperior" unicode="&#xb9;" 
d="M204 262v36h78v212c-1 -1 -15 -19 -63 -19h-15v37h19c36 0 55 7 68 30h34v-260h70v-36h-191z" />
    <glyph glyph-name="threequarters" unicode="&#xbe;" 
d="M152 262c-54 0 -109 26 -109 112h43c0 -51 25 -73 65 -73c36 0 62 18 62 50c0 31 -26 48 -61 48h-20v36h20c34 0 54 21 54 49c0 30 -22 47 -55 47c-37 0 -62 -21 -62 -72h-43c0 83 52 110 107 110c64 0 98 -36 98 -81c0 -33 -19 -58 -39 -70c23 -10 46 -32 46 -69
c0 -51 -42 -87 -106 -87zM124 0l341 558h51l-341 -558h-51zM471 0v71h-157v31l155 193h45v-188h46v-36h-46v-71h-43zM366 107h105v130z" />
    <glyph glyph-name="threesuperior" unicode="&#xb3;" 
d="M301 262c-54 0 -109 26 -109 112h43c0 -51 25 -73 65 -73c36 0 62 18 62 50c0 31 -26 48 -61 48h-20v36h20c34 0 54 21 54 49c0 30 -22 47 -55 47c-37 0 -62 -21 -62 -72h-43c0 83 52 110 107 110c64 0 98 -36 98 -81c0 -33 -19 -58 -39 -70c23 -10 46 -32 46 -69
c0 -51 -42 -87 -106 -87z" />
    <glyph glyph-name="twosuperior" unicode="&#xb2;" 
d="M193 262v32c0 48 33 72 68 91l51 27c36 19 46 41 46 66c0 40 -24 52 -54 52c-39 0 -62 -20 -62 -71h-43c0 84 50 110 105 110c63 0 99 -34 99 -88c0 -36 -16 -72 -67 -100l-51 -28c-36 -20 -45 -31 -45 -54h166v-37h-213z" />
    <glyph glyph-name="brokenbar" unicode="&#xa6;" 
d="M273 -178v321h55v-321h-55zM273 312v320h55v-320h-55z" />
    <glyph glyph-name="minus" unicode="&#x2212;" 
d="M136 190v54h329v-54h-329z" />
    <glyph glyph-name="multiply" unicode="&#xd7;" 
d="M338 216l187 -186l-39 -40l-186 186l-186 -186l-39 40l187 186l-187 186l39 40l186 -186l186 186l39 -40z" />
    <glyph glyph-name="space" unicode=" " 
 />
    <glyph glyph-name="exclam" unicode="!" 
d="M278 163l-10 171v224h65v-224l-10 -171h-45zM249 0v102h102v-102h-102z" />
    <glyph glyph-name="quotedbl" unicode="&#x22;" 
d="M190 299c-23 204 -24 217 -24 224c0 31 17 46 46 46s46 -15 46 -46c0 -7 -1 -20 -24 -224h-44zM366 299c-23 204 -24 217 -24 224c0 31 17 46 46 46s46 -15 46 -46c0 -7 -1 -20 -24 -224h-44z" />
    <glyph glyph-name="numbersign" unicode="#" 
d="M88 360l10 48h105l29 150h53l-29 -150h138l29 150h53l-29 -150h103l-10 -48h-102l-29 -150h103l-10 -48h-103l-31 -162h-53l31 162h-138l-31 -162h-53l31 162h-105l10 48h105l29 150h-106zM247 360l-29 -150h138l29 150h-138z" />
    <glyph glyph-name="dollar" unicode="$" 
d="M260 -50v89c-96 9 -176 56 -181 149h61c5 -47 48 -87 120 -96v173c-84 20 -169 45 -169 130c0 79 74 120 169 124v89h57v-90c85 -10 147 -55 153 -137h-62c-8 52 -49 77 -91 84v-158c84 -19 169 -46 169 -137c0 -86 -76 -126 -169 -132v-88h-57zM425 168
c0 48 -48 68 -108 83v-160c63 4 108 30 108 77zM153 397c0 -44 48 -62 107 -77v147c-69 -3 -107 -31 -107 -70z" />
    <glyph glyph-name="percent" unicode="%" 
d="M36 0l175 226h40v-40l-143 -186h-72zM167 314c56 0 84 33 84 101s-28 101 -84 101s-84 -33 -84 -101s28 -101 84 -101zM166 261c-72 0 -141 44 -141 153c0 111 71 155 143 155s141 -44 141 -153c0 -111 -71 -155 -143 -155zM433 43c56 0 84 33 84 101s-28 101 -84 101
s-84 -33 -84 -101s28 -101 84 -101zM432 -10c-72 0 -141 44 -141 153c0 111 71 155 143 155s141 -44 141 -153c0 -111 -71 -155 -143 -155zM563 558l-174 -225h-40v40l142 185h72z" />
    <glyph glyph-name="ampersand" unicode="&#x26;" 
d="M175 313h407v-54h-95v-49c0 -144 -53 -220 -186 -220s-185 76 -185 220v348h329v-54h-270v-191zM302 46c109 0 126 71 126 166v47h-253v-47c0 -95 18 -166 127 -166z" />
    <glyph glyph-name="quotesingle" unicode="'" 
d="M278 299c-23 204 -24 217 -24 224c0 31 17 46 46 46s46 -15 46 -46c0 -7 -1 -20 -24 -224h-44z" />
    <glyph glyph-name="parenleft" unicode="(" 
d="M414 -178c-160 137 -224 278 -224 405s64 268 224 405h61c-160 -167 -223 -275 -223 -405s63 -238 223 -405h-61z" />
    <glyph glyph-name="parenright" unicode=")" 
d="M125 -178c160 167 223 275 223 405s-63 238 -223 405h61c160 -137 224 -278 224 -405s-64 -268 -224 -405h-61z" />
    <glyph glyph-name="asterisk" unicode="*" 
d="M300 373l-102 -130l-39 29l92 137l-155 57l15 46l159 -45l6 165h48l6 -165l159 45l15 -46l-155 -57l92 -137l-39 -29z" />
    <glyph glyph-name="plus" unicode="+" 
d="M272 0v190h-192v54h192v188h57v-188h192v-54h-192v-190h-57z" />
    <glyph glyph-name="comma" unicode="," 
d="M235 -153c-15 0 -23 6 -23 21c0 5 1 14 2 19l36 215h105l-93 -234c-7 -17 -15 -21 -27 -21z" />
    <glyph glyph-name="hyphen" unicode="-" 
d="M130 252v55h340v-55h-340z" />
    <glyph glyph-name="period" unicode="." 
d="M249 0v102h102v-102h-102z" />
    <glyph glyph-name="slash" unicode="/" 
d="M582 632l-554 -810h-64l554 810h64z" />
    <glyph glyph-name="zero" unicode="0" 
d="M299 -10c-144 0 -210 118 -210 287c0 175 70 292 212 292c144 0 210 -119 210 -288c0 -175 -70 -291 -212 -291zM300 46c117 0 146 116 146 233s-29 234 -146 234s-146 -117 -146 -234s29 -233 146 -233z" />
    <glyph glyph-name="one" unicode="1" 
d="M132 0v53h144v431c-21 -19 -48 -39 -116 -39h-28v55h50c39 0 80 13 101 58h54v-505h130v-53h-335z" />
    <glyph glyph-name="two" unicode="2" 
d="M114 0v51c0 80 59 129 129 166l100 53c54 29 98 65 98 135s-43 108 -123 108c-76 0 -133 -34 -133 -131h-64c0 115 73 187 200 187c110 0 184 -54 184 -161c0 -87 -50 -142 -132 -186l-97 -52c-63 -34 -99 -60 -99 -115h336v-55h-399z" />
    <glyph glyph-name="three" unicode="3" 
d="M310 513c-77 0 -136 -41 -136 -137h-63c0 133 95 193 203 193s187 -59 187 -156c0 -62 -32 -104 -92 -128c64 -23 102 -67 102 -134c0 -93 -73 -161 -199 -161c-113 0 -207 55 -207 194h63c0 -92 53 -138 141 -138c75 0 137 33 137 106c0 74 -63 106 -146 106h-11v51h11
c82 0 136 32 136 101s-55 103 -126 103z" />
    <glyph glyph-name="four" unicode="4" 
d="M363 0v142h-291v43l290 373h62v-363h86v-53h-86v-142h-61zM148 195h215v276z" />
    <glyph glyph-name="five" unicode="5" 
d="M313 -10c-125 0 -195 77 -195 208h62c0 -89 38 -153 135 -153c99 0 136 66 136 144c0 104 -67 139 -142 139c-76 0 -120 -36 -128 -42l-47 13l34 259h311v-55h-260l-21 -154c20 14 57 33 120 33c122 0 197 -72 197 -192c0 -119 -73 -200 -202 -200z" />
    <glyph glyph-name="six" unicode="6" 
d="M314 -10c-153 0 -212 116 -212 282c0 185 73 297 217 297c108 0 176 -63 176 -168h-62c0 50 -26 112 -114 112c-129 0 -153 -134 -153 -228c24 25 76 61 154 61c96 0 185 -55 185 -168c0 -76 -40 -188 -191 -188zM315 290c-75 0 -124 -36 -149 -59
c4 -81 30 -185 147 -185c80 0 127 50 127 126c0 75 -44 118 -125 118z" />
    <glyph glyph-name="seven" unicode="7" 
d="M254 0c0 176 77 365 211 503h-273v-78h-58v133h406v-51c-137 -139 -222 -312 -222 -507h-64z" />
    <glyph glyph-name="eight" unicode="8" 
d="M300 -10c-143 0 -211 67 -211 159c0 68 37 113 102 136c-61 24 -92 66 -92 128c0 99 81 156 201 156c122 0 201 -58 201 -156c0 -62 -32 -104 -92 -128c66 -24 102 -69 102 -136c0 -92 -69 -159 -211 -159zM300 258c-84 0 -146 -32 -146 -106s62 -106 146 -106
s146 32 146 106s-62 106 -146 106zM300 513c-82 0 -136 -31 -136 -102s54 -102 136 -102s136 31 136 102s-54 102 -136 102z" />
    <glyph glyph-name="nine" unicode="9" 
d="M285 569c153 0 212 -116 212 -282c0 -185 -73 -297 -217 -297c-108 0 -176 63 -176 168h62c0 -50 26 -112 114 -112c129 0 153 134 153 227c-25 -24 -76 -60 -154 -60c-96 0 -185 55 -185 168c0 76 40 188 191 188zM285 269c74 0 123 35 147 58c-4 79 -28 186 -146 186
c-80 0 -127 -50 -127 -127c0 -74 44 -117 126 -117z" />
    <glyph glyph-name="colon" unicode=":" 
d="M249 0v102h102v-102h-102zM249 330v102h102v-102h-102z" />
    <glyph glyph-name="semicolon" unicode=";" 
d="M235 -153c-18 0 -26 9 -22 34l37 221h105l-93 -234c-7 -17 -15 -21 -27 -21zM249 330v102h102v-102h-102z" />
    <glyph glyph-name="less" unicode="&#x3c;" 
d="M526 -10l-452 203v46l452 203v-61l-374 -165l374 -163v-63z" />
    <glyph glyph-name="equal" unicode="=" 
d="M126 126v54h349v-54h-349zM126 254v54h349v-54h-349z" />
    <glyph glyph-name="greater" unicode="&#x3e;" 
d="M74 442l452 -203v-46l-452 -203v61l373 164l-373 164v63z" />
    <glyph glyph-name="question" unicode="?" 
d="M295 182l-35 39c130 104 164 143 164 195s-33 98 -132 98c-83 0 -131 -32 -131 -98h-60c0 113 92 153 193 153c134 0 193 -71 193 -152c0 -83 -61 -140 -192 -235zM239 0v122h102v-122h-102z" />
    <glyph glyph-name="at" unicode="@" 
d="M154 216c0 -135 16 -178 57 -178c42 0 66 45 66 45v266s-24 45 -66 45c-41 0 -57 -43 -57 -178zM198 -10c-58 0 -101 35 -101 222c0 200 49 230 104 230c32 0 58 -10 79 -47v37h52v-326c0 -44 26 -66 58 -66s57 22 57 66v296c0 117 -27 190 -149 190
c-99 0 -135 -48 -135 -109h-56c0 61 35 159 194 159c191 0 201 -142 201 -240v-296c0 -94 -67 -116 -114 -116c-79 0 -93 61 -93 61c-23 -41 -53 -61 -97 -61z" />
    <glyph glyph-name="A" unicode="A" 
d="M67 0l198 558h70l198 -558h-70l-47 139h-233l-48 -139h-68zM299 485l-99 -291h197z" />
    <glyph glyph-name="B" unicode="B" 
d="M134 0v558h160c110 0 194 -53 194 -149c0 -50 -23 -92 -82 -120c58 -20 105 -62 105 -133c0 -96 -87 -156 -199 -156h-178zM197 258v-203h115c95 0 134 48 134 105c0 63 -48 98 -138 98h-111zM197 503v-190h88c89 0 138 27 138 92c0 58 -40 98 -133 98h-93z" />
    <glyph glyph-name="C" unicode="C" 
d="M310 -10c-144 0 -221 100 -221 288c0 189 78 291 226 291c85 0 189 -34 195 -179h-63c-10 84 -54 125 -133 125c-135 0 -160 -121 -160 -236s25 -235 160 -235c79 0 123 41 133 125h63c-6 -136 -106 -179 -200 -179z" />
    <glyph glyph-name="D" unicode="D" 
d="M134 0v558h148c180 0 229 -125 229 -278c0 -157 -52 -280 -229 -280h-148zM197 503v-448h85c150 0 164 127 164 224s-14 224 -164 224h-85z" />
    <glyph glyph-name="E" unicode="E" 
d="M134 0v558h344v-55h-281v-190h247v-55h-247v-203h281v-55h-344z" />
    <glyph glyph-name="F" unicode="F" 
d="M134 0v558h349v-55h-286v-204h251v-55h-251v-244h-63z" />
    <glyph glyph-name="G" unicode="G" 
d="M300 515c-111 0 -145 -110 -145 -233c0 -119 32 -238 148 -238c64 0 106 36 122 53v145h-138v55h201v-297h-48v56c-3 -4 -47 -66 -148 -66c-156 0 -202 146 -202 290c0 186 76 289 211 289c83 0 182 -39 188 -194h-63c-9 91 -51 140 -126 140z" />
    <glyph glyph-name="H" unicode="H" 
d="M134 0v558h63v-245h206v245h63v-558h-63v258h-206v-258h-63z" />
    <glyph glyph-name="I" unicode="I" 
d="M133 0v55h136v448h-136v55h335v-55h-136v-448h136v-55h-335z" />
    <glyph glyph-name="J" unicode="J" 
d="M293 -10c-132 0 -187 78 -187 187c0 9 0 21 2 34h63c-1 -7 -2 -23 -2 -36c0 -74 33 -129 123 -129c94 0 123 59 123 162v350h63v-350c0 -142 -55 -218 -185 -218z" />
    <glyph glyph-name="K" unicode="K" 
d="M134 0v558h63v-277l247 277h81l-216 -237l240 -321h-79l-201 277l-72 -78v-199h-63z" />
    <glyph glyph-name="L" unicode="L" 
d="M134 0v558h63v-503h286v-55h-349z" />
    <glyph glyph-name="M" unicode="M" 
d="M327 160h-54l-117 331l4 -134v-357h-60v558h92l71 -203l38 -116l38 116l71 203h90v-558h-60v357l4 134z" />
    <glyph glyph-name="N" unicode="N" 
d="M466 0h-87l-191 485l6 -140v-345h-60v558h87l191 -485l-6 140v345h60v-558z" />
    <glyph glyph-name="O" unicode="O" 
d="M299 -10c-144 0 -210 118 -210 287c0 175 70 292 212 292c144 0 210 -119 210 -288c0 -175 -70 -291 -212 -291zM300 46c117 0 146 116 146 233s-29 234 -146 234s-146 -117 -146 -234s29 -233 146 -233z" />
    <glyph glyph-name="P" unicode="P" 
d="M134 0v558h148c142 0 228 -55 228 -170c0 -113 -85 -170 -228 -170h-85v-218h-63zM197 503v-230h86c118 0 162 50 162 115s-44 115 -162 115h-86z" />
    <glyph glyph-name="Q" unicode="Q" 
d="M299 -10c-145 0 -210 119 -210 287c0 173 69 292 213 292c143 0 209 -118 209 -288c0 -87 -17 -156 -50 -206l110 -105h-77l-68 64c-32 -28 -74 -44 -127 -44zM300 46c35 0 63 10 84 29l-150 144h76l106 -102c23 44 30 103 30 161c0 118 -29 235 -146 235
s-146 -117 -146 -234s29 -233 146 -233z" />
    <glyph glyph-name="R" unicode="R" 
d="M491 392c0 -92 -62 -145 -149 -165l186 -227h-80l-174 220h-77v-220h-63v558h129c142 0 228 -57 228 -166zM197 503v-230h67c118 0 162 50 162 115s-44 115 -162 115h-67z" />
    <glyph glyph-name="S" unicode="S" 
d="M300 -10c-118 0 -200 55 -200 166h63c4 -69 51 -109 139 -109c79 0 135 33 135 98c0 46 -29 72 -84 91l-119 42c-74 26 -123 69 -123 144c0 97 82 147 186 147c106 0 184 -51 184 -164h-62c-3 91 -72 107 -124 107c-79 0 -119 -37 -119 -89c0 -41 25 -69 76 -87l119 -42
c89 -31 130 -70 130 -145c0 -111 -90 -159 -201 -159z" />
    <glyph glyph-name="T" unicode="T" 
d="M268 0v503h-191v55h446v-55h-192v-503h-63z" />
    <glyph glyph-name="U" unicode="U" 
d="M300 -10c-123 0 -182 57 -182 203v365h63v-365c0 -107 32 -147 119 -147c88 0 120 40 120 147v365h63v-365c0 -146 -60 -203 -183 -203z" />
    <glyph glyph-name="V" unicode="V" 
d="M339 0h-78l-195 558h69l102 -303l63 -193l64 193l102 303h68z" />
    <glyph glyph-name="W" unicode="W" 
d="M266 365h69l91 -308l19 180l38 321h64l-73 -558h-88l-86 291l-86 -291h-88l-73 558h65l38 -321l19 -180z" />
    <glyph glyph-name="X" unicode="X" 
d="M338 287l199 -287h-76l-100 150l-60 91l-60 -91l-100 -150h-78l199 287l-188 271h76l89 -134l60 -91l60 91l89 134h78z" />
    <glyph glyph-name="Y" unicode="Y" 
d="M269 0v226l-221 332h73l90 -136l91 -144l90 144l88 136h73l-221 -334v-224h-63z" />
    <glyph glyph-name="Z" unicode="Z" 
d="M107 0v50l308 453h-303v55h377v-50l-309 -453h312v-55h-385z" />
    <glyph glyph-name="bracketleft" unicode="[" 
d="M206 -178v810h266v-50h-209v-710h209v-50h-266z" />
    <glyph glyph-name="backslash" unicode="\" 
d="M572 -178l-554 810h64l554 -810h-64z" />
    <glyph glyph-name="bracketright" unicode="]" 
d="M128 -178v50h211v710h-211v50h266v-810h-266z" />
    <glyph glyph-name="asciicircum" unicode="^" 
d="M123 220l151 338h51l151 -338h-58l-118 275l-118 -275h-59z" />
    <glyph glyph-name="underscore" unicode="_" 
d="M22 -54v54h556v-54h-556z" />
    <glyph glyph-name="grave" unicode="`" 
d="M339 490l-118 191h88l69 -191h-39z" />
    <glyph glyph-name="a" unicode="a" 
d="M244 -10c-83 0 -146 36 -146 121c0 100 88 124 167 124c66 0 127 -17 127 -17v39c0 73 -8 132 -110 132c-79 0 -117 -35 -117 -100h-59c0 127 106 153 181 153c115 0 164 -61 164 -168v-209c0 -17 6 -22 25 -22c22 0 54 7 54 7v-46s-37 -14 -70 -14c-50 0 -60 31 -60 57
v8s-44 -65 -156 -65zM248 44c90 0 144 46 144 46v82s-58 12 -119 12c-72 0 -117 -17 -117 -72c0 -45 29 -68 92 -68z" />
    <glyph glyph-name="b" unicode="b" 
d="M319 -10c-93 0 -138 65 -138 65v-55h-47v632h59v-246c18 21 58 56 128 56c95 0 179 -65 179 -225c0 -163 -88 -227 -181 -227zM308 45c92 0 131 70 131 171s-39 171 -131 171c-75 0 -115 -46 -115 -46v-250s40 -46 115 -46z" />
    <glyph glyph-name="c" unicode="c" 
d="M304 -10c-93 0 -204 48 -204 225c0 182 117 227 207 227c74 0 173 -30 181 -153h-60c-8 76 -56 99 -119 99c-95 0 -149 -53 -149 -171s54 -173 149 -173c63 0 111 24 119 100h60c-8 -123 -110 -154 -184 -154z" />
    <glyph glyph-name="d" unicode="d" 
d="M280 -10c-90 0 -180 60 -180 224c0 158 84 228 179 228c68 0 109 -35 128 -56v246h59v-632h-47v55s-45 -65 -139 -65zM292 45c75 0 115 46 115 46v250s-40 46 -115 46c-92 0 -131 -70 -131 -171s39 -171 131 -171z" />
    <glyph glyph-name="e" unicode="e" 
d="M304 -10c-107 0 -204 63 -204 225c0 173 110 227 204 227c89 0 199 -49 199 -225v-14h-344c5 -107 54 -161 148 -161c75 0 124 35 136 98h59c-16 -118 -122 -150 -198 -150zM300 390c-82 0 -131 -45 -140 -138h282c-11 93 -60 138 -142 138z" />
    <glyph glyph-name="f" unicode="f" 
d="M123 0v54h117v324h-117v54h117v8c0 122 83 197 239 197v-54c-94 0 -180 -31 -180 -143v-8h180v-54h-180v-324h180v-54h-356z" />
    <glyph glyph-name="g" unicode="g" 
d="M284 -188c-105 0 -180 35 -180 149h59c0 -69 38 -98 119 -98c112 0 125 54 125 121v62c-18 -21 -59 -56 -129 -56c-94 0 -178 65 -178 225c0 163 88 227 181 227s138 -65 138 -65v55h47v-453c0 -105 -42 -167 -182 -167zM292 45c75 0 115 46 115 46v250s-40 46 -115 46
c-92 0 -131 -70 -131 -171s39 -171 131 -171z" />
    <glyph glyph-name="h" unicode="h" 
d="M134 0v632h59v-244c18 21 50 54 127 54c73 0 147 -29 147 -177v-265h-59v250c0 90 -19 139 -100 139c-79 0 -115 -47 -115 -47v-342h-59z" />
    <glyph glyph-name="i" unicode="i" 
d="M118 0v54h160v324h-160v54h219v-378h147v-54h-366zM267 551v81h81v-81h-81z" />
    <glyph glyph-name="j" unicode="j" 
d="M152 -183v54c94 0 180 31 180 143v364h-168v54h227v-424c0 -121 -83 -191 -239 -191zM321 551v81h81v-81h-81z" />
    <glyph glyph-name="k" unicode="k" 
d="M134 0v632h59v-406l242 206h77l-194 -163l203 -269h-73l-171 235l-84 -70v-165h-59z" />
    <glyph glyph-name="l" unicode="l" 
d="M118 0v54h153v524h-153v54h212v-578h154v-54h-366z" />
    <glyph glyph-name="m" unicode="m" 
d="M62 0v432h47v-64c15 26 53 74 115 74c46 0 79 -26 95 -71c17 26 53 71 115 71c61 0 105 -44 105 -133v-309h-59v294c0 57 -16 95 -60 95c-56 0 -90 -63 -90 -63v-326h-59v294c0 57 -16 95 -60 95c-56 0 -90 -63 -90 -63v-326h-59z" />
    <glyph glyph-name="n" unicode="n" 
d="M134 0v432h47v-55s37 65 141 65c71 0 145 -30 145 -177v-265h-59v250c0 90 -19 139 -100 139c-79 0 -115 -47 -115 -47v-342h-59z" />
    <glyph glyph-name="o" unicode="o" 
d="M299 -10c-95 0 -199 51 -199 225c0 177 107 227 201 227c95 0 199 -51 199 -225c0 -177 -107 -227 -201 -227zM300 45c91 0 139 57 139 171s-48 171 -139 171s-139 -57 -139 -171s48 -171 139 -171z" />
    <glyph glyph-name="p" unicode="p" 
d="M134 -178v610h47v-55s45 65 139 65c93 0 180 -64 180 -225c0 -158 -84 -227 -179 -227c-68 0 -109 35 -128 56v-224h-59zM308 45c92 0 131 70 131 171s-39 171 -131 171c-75 0 -115 -46 -115 -46v-250s40 -46 115 -46z" />
    <glyph glyph-name="q" unicode="q" 
d="M407 -178v224c-18 -21 -59 -56 -129 -56c-94 0 -178 65 -178 225c0 163 88 227 181 227s138 -65 138 -65v55h47v-610h-59zM292 45c75 0 115 46 115 46v250s-40 46 -115 46c-92 0 -131 -70 -131 -171s39 -171 131 -171z" />
    <glyph glyph-name="r" unicode="r" 
d="M118 0v54h115v324h-115v54h162v-93s33 103 151 103c42 0 75 -13 75 -13v-60s-31 13 -72 13c-105 0 -142 -84 -142 -84v-244h192v-54h-366z" />
    <glyph glyph-name="s" unicode="s" 
d="M310 -10c-119 0 -194 49 -200 147h58c6 -54 47 -93 146 -93c68 0 115 18 115 70c0 57 -58 66 -158 90c-81 19 -147 39 -147 118c0 86 76 120 173 120c102 0 178 -38 186 -136h-58c-12 72 -77 82 -129 82c-74 0 -112 -20 -112 -62c0 -54 63 -59 160 -82
c87 -21 145 -44 145 -125c0 -96 -81 -129 -179 -129z" />
    <glyph glyph-name="t" unicode="t" 
d="M77 378v54h144v200h59v-200h212v-54h-212v-206c0 -96 22 -128 99 -128c54 0 102 16 102 16v-54s-35 -16 -104 -16c-100 0 -156 34 -156 180v208h-144z" />
    <glyph glyph-name="u" unicode="u" 
d="M279 -10c-71 0 -145 30 -145 177v265h59v-250c0 -90 19 -139 100 -139c79 0 115 47 115 47v342h59v-432h-47v55s-37 -65 -141 -65z" />
    <glyph glyph-name="v" unicode="v" 
d="M265 0l-184 432h65l153 -375l152 375h64l-184 -432h-66z" />
    <glyph glyph-name="w" unicode="w" 
d="M420 55l60 377h58l-75 -432h-78l-85 276l-85 -276h-78l-75 432h59l59 -377l87 284h66z" />
    <glyph glyph-name="x" unicode="x" 
d="M458 0l-160 183l-157 -183h-71l194 222l-185 210h73l149 -172l148 172h71l-184 -211l195 -221h-73z" />
    <glyph glyph-name="y" unicode="y" 
d="M88 -129c91 0 140 36 178 127l-185 434h65l153 -375l152 375h64l-186 -437c-56 -131 -121 -178 -241 -178v54z" />
    <glyph glyph-name="z" unicode="z" 
d="M118 0v44l278 334h-273v54h355v-44l-278 -333h283v-55h-365z" />
    <glyph glyph-name="braceleft" unicode="{" 
d="M405 -178c-125 0 -191 39 -184 154l8 135c4 71 -29 91 -115 91v50c86 0 119 20 115 91l-8 135c-7 115 59 154 184 154h67v-50h-67c-78 0 -132 -8 -126 -111l9 -144c3 -53 -27 -93 -73 -100c46 -8 76 -47 73 -100l-9 -144c-6 -103 48 -111 126 -111h67v-50h-67z" />
    <glyph glyph-name="bar" unicode="|" 
d="M273 -178v810h55v-810h-55z" />
    <glyph glyph-name="braceright" unicode="}" 
d="M128 -178v50h67c78 0 132 8 126 111l-9 144c-3 53 25 91 72 100c-45 7 -76 47 -72 100l9 144c6 103 -48 111 -126 111h-67v50h67c125 0 191 -39 184 -154l-8 -135c-4 -71 29 -91 115 -91v-50c-86 0 -119 -20 -115 -91l8 -135c7 -115 -59 -154 -184 -154h-67z" />
    <glyph glyph-name="asciitilde" unicode="~" 
d="M196 569c58 0 164 -69 210 -69c45 0 76 69 76 69l33 -14s-36 -114 -111 -114c-58 0 -164 69 -209 69c-46 0 -77 -69 -77 -69l-33 14s36 114 111 114z" />
    <glyph glyph-name="Adieresis" unicode="&#xc4;" 
d="M67 0l198 558h70l198 -558h-70l-47 139h-233l-48 -139h-68zM299 485l-99 -291h197zM159 658v81h81v-81h-81zM360 658v81h81v-81h-81z" />
    <glyph glyph-name="Aring" unicode="&#xc5;" 
d="M67 0l198 558h70l198 -558h-70l-47 139h-233l-48 -139h-68zM299 485l-99 -291h197zM300 583c-72 0 -129 57 -129 127s57 127 129 127s129 -57 129 -127s-57 -127 -129 -127zM300 628c46 0 82 36 82 82s-36 82 -82 82s-82 -36 -82 -82s36 -82 82 -82z" />
    <glyph glyph-name="Ccedilla" unicode="&#xc7;" 
d="M309 -188c-40 0 -67 15 -76 21l10 34c12 -6 32 -12 51 -12c27 0 41 11 41 24c0 28 -60 43 -78 47l14 67c-119 16 -182 114 -182 285c0 189 78 291 226 291c85 0 189 -34 195 -179h-63c-10 84 -54 125 -133 125c-135 0 -160 -121 -160 -236s25 -235 160 -235
c79 0 123 41 133 125h63c-6 -136 -106 -179 -200 -179l-7 -35c54 -16 91 -40 91 -79c0 -35 -29 -64 -85 -64z" />
    <glyph glyph-name="Eacute" unicode="&#xc9;" 
d="M262 597l69 191h88l-118 -191h-39zM134 0v558h344v-55h-281v-190h247v-55h-247v-203h281v-55h-344z" />
    <glyph glyph-name="Ntilde" unicode="&#xd1;" 
d="M466 0h-87l-191 485l6 -140v-345h-60v558h87l191 -485l-6 140v345h60v-558zM165 627l-32 15s44 114 114 114c52 0 74 -61 115 -61s74 61 74 61l32 -15s-45 -114 -115 -114c-51 0 -74 62 -115 62c-42 0 -73 -62 -73 -62z" />
    <glyph glyph-name="Odieresis" unicode="&#xd6;" 
d="M160 658v81h81v-81h-81zM361 658v81h81v-81h-81zM299 -10c-144 0 -210 118 -210 287c0 175 70 292 212 292c144 0 210 -119 210 -288c0 -175 -70 -291 -212 -291zM300 46c117 0 146 116 146 233s-29 234 -146 234s-146 -117 -146 -234s29 -233 146 -233z" />
    <glyph glyph-name="Udieresis" unicode="&#xdc;" 
d="M160 658v81h81v-81h-81zM361 658v81h81v-81h-81zM300 -10c-123 0 -182 57 -182 203v365h63v-365c0 -107 32 -147 119 -147c88 0 120 40 120 147v365h63v-365c0 -146 -60 -203 -183 -203z" />
    <glyph glyph-name="aacute" unicode="&#xe1;" 
d="M244 -10c-83 0 -146 36 -146 121c0 100 88 124 167 124c66 0 127 -17 127 -17v39c0 73 -8 132 -110 132c-79 0 -117 -35 -117 -100h-59c0 127 106 153 181 153c115 0 164 -61 164 -168v-209c0 -17 6 -22 25 -22c22 0 54 7 54 7v-46s-37 -14 -70 -14c-50 0 -60 31 -60 57
v8s-44 -65 -156 -65zM248 44c90 0 144 46 144 46v82s-58 12 -119 12c-72 0 -117 -17 -117 -72c0 -45 29 -68 92 -68zM249 490l69 191h88l-118 -191h-39z" />
    <glyph glyph-name="agrave" unicode="&#xe0;" 
d="M244 -10c-83 0 -146 36 -146 121c0 100 88 124 167 124c66 0 127 -17 127 -17v39c0 73 -8 132 -110 132c-79 0 -117 -35 -117 -100h-59c0 127 106 153 181 153c115 0 164 -61 164 -168v-209c0 -17 6 -22 25 -22c22 0 54 7 54 7v-46s-37 -14 -70 -14c-50 0 -60 31 -60 57
v8s-44 -65 -156 -65zM248 44c90 0 144 46 144 46v82s-58 12 -119 12c-72 0 -117 -17 -117 -72c0 -45 29 -68 92 -68zM305 490l-118 191h88l69 -191h-39z" />
    <glyph glyph-name="acircumflex" unicode="&#xe2;" 
d="M244 -10c-83 0 -146 36 -146 121c0 100 88 124 167 124c66 0 127 -17 127 -17v39c0 73 -8 132 -110 132c-79 0 -117 -35 -117 -100h-59c0 127 106 153 181 153c115 0 164 -61 164 -168v-209c0 -17 6 -22 25 -22c22 0 54 7 54 7v-46s-37 -14 -70 -14c-50 0 -60 31 -60 57
v8s-44 -65 -156 -65zM248 44c90 0 144 46 144 46v82s-58 12 -119 12c-72 0 -117 -17 -117 -72c0 -45 29 -68 92 -68zM170 490l89 191h74l89 -191h-40l-86 123l-86 -123h-40z" />
    <glyph glyph-name="adieresis" unicode="&#xe4;" 
d="M244 -10c-83 0 -146 36 -146 121c0 100 88 124 167 124c66 0 127 -17 127 -17v39c0 73 -8 132 -110 132c-79 0 -117 -35 -117 -100h-59c0 127 106 153 181 153c115 0 164 -61 164 -168v-209c0 -17 6 -22 25 -22c22 0 54 7 54 7v-46s-37 -14 -70 -14c-50 0 -60 31 -60 57
v8s-44 -65 -156 -65zM248 44c90 0 144 46 144 46v82s-58 12 -119 12c-72 0 -117 -17 -117 -72c0 -45 29 -68 92 -68zM156 551v81h81v-81h-81zM357 551v81h81v-81h-81z" />
    <glyph glyph-name="atilde" unicode="&#xe3;" 
d="M244 -10c-83 0 -146 36 -146 121c0 100 88 124 167 124c66 0 127 -17 127 -17v39c0 73 -8 132 -110 132c-79 0 -117 -35 -117 -100h-59c0 127 106 153 181 153c115 0 164 -61 164 -168v-209c0 -17 6 -22 25 -22c22 0 54 7 54 7v-46s-37 -14 -70 -14c-50 0 -60 31 -60 57
v8s-44 -65 -156 -65zM248 44c90 0 144 46 144 46v82s-58 12 -119 12c-72 0 -117 -17 -117 -72c0 -45 29 -68 92 -68zM155 520l-32 15s44 114 114 114c52 0 74 -61 115 -61s74 61 74 61l32 -15s-45 -114 -115 -114c-51 0 -74 62 -115 62c-42 0 -73 -62 -73 -62z" />
    <glyph glyph-name="aring" unicode="&#xe5;" 
d="M244 -10c-83 0 -146 36 -146 121c0 100 88 124 167 124c66 0 127 -17 127 -17v39c0 73 -8 132 -110 132c-79 0 -117 -35 -117 -100h-59c0 127 106 153 181 153c115 0 164 -61 164 -168v-209c0 -17 6 -22 25 -22c22 0 54 7 54 7v-46s-37 -14 -70 -14c-50 0 -60 31 -60 57
v8s-44 -65 -156 -65zM248 44c90 0 144 46 144 46v82s-58 12 -119 12c-72 0 -117 -17 -117 -72c0 -45 29 -68 92 -68zM296 476c-72 0 -129 57 -129 127s57 127 129 127s129 -57 129 -127s-57 -127 -129 -127zM296 521c46 0 82 36 82 82s-36 82 -82 82s-82 -36 -82 -82
s36 -82 82 -82z" />
    <glyph glyph-name="ccedilla" unicode="&#xe7;" 
d="M313 -188c-40 0 -67 15 -76 21l10 34c12 -6 32 -12 51 -12c27 0 41 11 41 24c0 28 -60 43 -78 47l14 66c-86 9 -175 64 -175 223c0 182 117 227 207 227c74 0 173 -30 181 -153h-60c-8 76 -56 99 -119 99c-95 0 -149 -53 -149 -171s54 -173 149 -173c63 0 111 24 119 100
h60c-8 -118 -101 -151 -174 -154l-7 -35c54 -16 91 -40 91 -79c0 -35 -29 -64 -85 -64z" />
    <glyph glyph-name="eacute" unicode="&#xe9;" 
d="M243 490l69 191h88l-118 -191h-39zM304 -10c-107 0 -204 63 -204 225c0 173 110 227 204 227c89 0 199 -49 199 -225v-14h-344c5 -107 54 -161 148 -161c75 0 124 35 136 98h59c-16 -118 -122 -150 -198 -150zM300 390c-82 0 -131 -45 -140 -138h282
c-11 93 -60 138 -142 138z" />
    <glyph glyph-name="egrave" unicode="&#xe8;" 
d="M304 -10c-107 0 -204 63 -204 225c0 173 110 227 204 227c89 0 199 -49 199 -225v-14h-344c5 -107 54 -161 148 -161c75 0 124 35 136 98h59c-16 -118 -122 -150 -198 -150zM300 390c-82 0 -131 -45 -140 -138h282c-11 93 -60 138 -142 138zM299 490l-118 191h88l69 -191
h-39z" />
    <glyph glyph-name="ecircumflex" unicode="&#xea;" 
d="M163 490l89 191h74l89 -191h-40l-86 123l-86 -123h-40zM304 -10c-107 0 -204 63 -204 225c0 173 110 227 204 227c89 0 199 -49 199 -225v-14h-344c5 -107 54 -161 148 -161c75 0 124 35 136 98h59c-16 -118 -122 -150 -198 -150zM300 390c-82 0 -131 -45 -140 -138h282
c-11 93 -60 138 -142 138z" />
    <glyph glyph-name="edieresis" unicode="&#xeb;" 
d="M149 551v81h81v-81h-81zM350 551v81h81v-81h-81zM304 -10c-107 0 -204 63 -204 225c0 173 110 227 204 227c89 0 199 -49 199 -225v-14h-344c5 -107 54 -161 148 -161c75 0 124 35 136 98h59c-16 -118 -122 -150 -198 -150zM300 390c-82 0 -131 -45 -140 -138h282
c-11 93 -60 138 -142 138z" />
    <glyph glyph-name="iacute" unicode="&#xed;" 
d="M261 490l69 191h88l-118 -191h-39zM118 0v54h160v324h-160v54h219v-378h147v-54h-366z" />
    <glyph glyph-name="igrave" unicode="&#xec;" 
d="M118 0v54h160v324h-160v54h219v-378h147v-54h-366zM317 490l-118 191h88l69 -191h-39z" />
    <glyph glyph-name="icircumflex" unicode="&#xee;" 
d="M182 490l89 191h74l89 -191h-40l-86 123l-86 -123h-40zM118 0v54h160v324h-160v54h219v-378h147v-54h-366z" />
    <glyph glyph-name="idieresis" unicode="&#xef;" 
d="M167 551v81h81v-81h-81zM368 551v81h81v-81h-81zM118 0v54h160v324h-160v54h219v-378h147v-54h-366z" />
    <glyph glyph-name="ntilde" unicode="&#xf1;" 
d="M134 0v432h47v-55s37 65 141 65c71 0 145 -30 145 -177v-265h-59v250c0 90 -19 139 -100 139c-79 0 -115 -47 -115 -47v-342h-59zM159 520l-32 15s44 114 114 114c52 0 74 -61 115 -61s74 61 74 61l32 -15s-45 -114 -115 -114c-51 0 -74 62 -115 62
c-42 0 -73 -62 -73 -62z" />
    <glyph glyph-name="oacute" unicode="&#xf3;" 
d="M253 490l69 191h88l-118 -191h-39zM299 -10c-95 0 -199 51 -199 225c0 177 107 227 201 227c95 0 199 -51 199 -225c0 -177 -107 -227 -201 -227zM300 45c91 0 139 57 139 171s-48 171 -139 171s-139 -57 -139 -171s48 -171 139 -171z" />
    <glyph glyph-name="ograve" unicode="&#xf2;" 
d="M299 -10c-95 0 -199 51 -199 225c0 177 107 227 201 227c95 0 199 -51 199 -225c0 -177 -107 -227 -201 -227zM300 45c91 0 139 57 139 171s-48 171 -139 171s-139 -57 -139 -171s48 -171 139 -171zM309 490l-118 191h88l69 -191h-39z" />
    <glyph glyph-name="ocircumflex" unicode="&#xf4;" 
d="M174 490l89 191h74l89 -191h-40l-86 123l-86 -123h-40zM299 -10c-95 0 -199 51 -199 225c0 177 107 227 201 227c95 0 199 -51 199 -225c0 -177 -107 -227 -201 -227zM300 45c91 0 139 57 139 171s-48 171 -139 171s-139 -57 -139 -171s48 -171 139 -171z" />
    <glyph glyph-name="odieresis" unicode="&#xf6;" 
d="M160 551v81h81v-81h-81zM361 551v81h81v-81h-81zM299 -10c-95 0 -199 51 -199 225c0 177 107 227 201 227c95 0 199 -51 199 -225c0 -177 -107 -227 -201 -227zM300 45c91 0 139 57 139 171s-48 171 -139 171s-139 -57 -139 -171s48 -171 139 -171z" />
    <glyph glyph-name="otilde" unicode="&#xf5;" 
d="M299 -10c-95 0 -199 51 -199 225c0 177 107 227 201 227c95 0 199 -51 199 -225c0 -177 -107 -227 -201 -227zM300 45c91 0 139 57 139 171s-48 171 -139 171s-139 -57 -139 -171s48 -171 139 -171zM159 520l-32 15s44 114 114 114c52 0 74 -61 115 -61s74 61 74 61
l32 -15s-45 -114 -115 -114c-51 0 -74 62 -115 62c-42 0 -73 -62 -73 -62z" />
    <glyph glyph-name="uacute" unicode="&#xfa;" 
d="M253 490l69 191h88l-118 -191h-39zM279 -10c-71 0 -145 30 -145 177v265h59v-250c0 -90 19 -139 100 -139c79 0 115 47 115 47v342h59v-432h-47v55s-37 -65 -141 -65z" />
    <glyph glyph-name="ugrave" unicode="&#xf9;" 
d="M279 -10c-71 0 -145 30 -145 177v265h59v-250c0 -90 19 -139 100 -139c79 0 115 47 115 47v342h59v-432h-47v55s-37 -65 -141 -65zM310 490l-118 191h88l69 -191h-39z" />
    <glyph glyph-name="ucircumflex" unicode="&#xfb;" 
d="M174 490l89 191h74l89 -191h-40l-86 123l-86 -123h-40zM279 -10c-71 0 -145 30 -145 177v265h59v-250c0 -90 19 -139 100 -139c79 0 115 47 115 47v342h59v-432h-47v55s-37 -65 -141 -65z" />
    <glyph glyph-name="udieresis" unicode="&#xfc;" 
d="M160 551v81h81v-81h-81zM361 551v81h81v-81h-81zM279 -10c-71 0 -145 30 -145 177v265h59v-250c0 -90 19 -139 100 -139c79 0 115 47 115 47v342h59v-432h-47v55s-37 -65 -141 -65z" />
    <glyph glyph-name="dagger" unicode="&#x2020;" 
d="M272 186v270h-127v50h127v126h56v-126h127v-50h-127v-270h-56z" />
    <glyph glyph-name="degree" unicode="&#xb0;" 
d="M300 264c-83 0 -152 62 -152 152c0 91 69 153 152 153c84 0 152 -62 152 -153c0 -90 -68 -152 -152 -152zM300 318c54 0 90 40 90 98c0 59 -36 99 -90 99c-53 0 -90 -40 -90 -99c0 -58 37 -98 90 -98z" />
    <glyph glyph-name="cent" unicode="&#xa2;" 
d="M271 -50v90c-90 11 -185 73 -185 238c0 166 97 228 185 240v90h57v-88c78 -6 167 -51 176 -164h-56c-6 63 -58 105 -120 109v-372c64 6 111 42 120 109h56c-8 -109 -95 -155 -176 -163v-89h-57zM145 279c0 -107 49 -169 126 -184v369c-75 -10 -126 -77 -126 -185z" />
    <glyph glyph-name="sterling" unicode="&#xa3;" 
d="M122 277v54h83v2c-24 209 166 225 293 230v-54c-102 -5 -250 -1 -231 -176v-2h158v-54h-152l12 -108c5 -54 -16 -95 -59 -115h283v-54h-387v55s114 14 102 114l-13 108h-89z" />
    <glyph glyph-name="section" unicode="&#xa7;" 
d="M490 -37c0 -92 -76 -151 -203 -151c-98 0 -189 35 -189 149h59c0 -58 43 -98 135 -98c96 0 138 44 138 97c0 61 -54 86 -123 101l-95 21c-68 15 -121 47 -121 108c0 59 50 98 79 116c-40 28 -57 67 -57 112c0 92 73 151 179 151c75 0 168 -30 168 -148h-59
c0 67 -45 98 -112 98c-83 0 -116 -47 -116 -97c0 -63 54 -87 123 -102l95 -21c68 -15 121 -47 121 -108c0 -59 -50 -98 -80 -116c39 -28 58 -66 58 -112zM260 269c-17 4 -33 9 -47 14c-25 -15 -62 -44 -62 -82c0 -36 33 -53 104 -69l88 -20c16 -4 32 -9 46 -15
c26 16 63 44 63 83c0 36 -33 53 -104 69z" />
    <glyph glyph-name="bullet" unicode="&#x2022;" 
d="M300 161c-56 0 -118 26 -118 118c0 91 62 118 118 118s118 -27 118 -118c0 -92 -62 -118 -118 -118z" />
    <glyph glyph-name="paragraph" unicode="&#xb6;" 
d="M278 268v240c-84 0 -149 -34 -149 -120s65 -120 149 -120zM424 -178v736h55v-736h-55zM283 558h50v-736h-55v396c-99 0 -206 46 -206 169c0 127 114 171 211 171z" />
    <glyph glyph-name="germandbls" unicode="&#xdf;" 
d="M361 -10c-60 0 -98 23 -98 23v56s43 -25 98 -25c54 0 83 25 83 61c0 89 -181 161 -181 161v46c103 30 158 88 158 169c0 68 -38 106 -115 106c-85 0 -121 -46 -121 -149v-438h-59v435c0 143 70 207 181 207c117 0 174 -71 174 -159c0 -121 -105 -178 -148 -196
c46 -20 170 -84 170 -188c0 -81 -75 -109 -142 -109z" />
    <glyph glyph-name="registered" unicode="&#xae;" 
d="M204 133v292h84c76 0 111 -37 111 -90c0 -52 -33 -75 -66 -83c22 -27 90 -114 96 -119h-72l-78 107h-20v-107h-55zM508 279c0 45 -22 86 -43 118l-103 161h57l88 -131c33 -49 60 -94 60 -148s-27 -99 -60 -148l-88 -131h-57l103 161c21 32 43 73 43 118zM92 279
c0 -45 22 -86 43 -118l103 -161h-57l-88 131c-33 49 -60 94 -60 148s27 99 60 148l88 131h57l-103 -161c-21 -32 -43 -73 -43 -118zM259 374v-86h26c37 0 58 17 58 44s-21 42 -58 42h-26z" />
    <glyph glyph-name="copyright" unicode="&#xa9;" 
d="M178 280c0 102 48 152 119 152c57 0 108 -32 108 -111h-57c0 33 -15 56 -50 56c-59 0 -63 -63 -63 -98s4 -98 63 -98c35 0 50 23 50 56h57c0 -79 -56 -111 -110 -111c-69 0 -117 52 -117 154zM92 279c0 -45 22 -86 43 -118l103 -161h-57l-88 131c-33 49 -60 94 -60 148
s27 99 60 148l88 131h57l-103 -161c-21 -32 -43 -73 -43 -118zM508 279c0 45 -22 86 -43 118l-103 161h57l88 -131c33 -49 60 -94 60 -148s-27 -99 -60 -148l-88 -131h-57l103 161c21 32 43 73 43 118z" />
    <glyph glyph-name="trademark" unicode="&#x2122;" 
d="M291 269v289h64l41 -155l42 155h64v-289h-45v207l-40 -131h-40l-41 131v-207h-45zM137 269v245h-76v44h197v-44h-75v-245h-46z" />
    <glyph glyph-name="acute" unicode="&#xb4;" 
d="M221 490l69 191h88l-118 -191h-39z" />
    <glyph glyph-name="dieresis" unicode="&#xa8;" 
d="M160 551v81h81v-81h-81zM361 551v81h81v-81h-81z" />
    <glyph glyph-name="notequal" unicode="&#x2260;" 
d="M126 254v54h216l98 124h62l-98 -124h71v-54h-114l-59 -74h173v-54h-216l-99 -126h-62l99 126h-71v54h114l59 74h-173z" />
    <glyph glyph-name="AE" unicode="&#xc6;" 
d="M20 0l102 558h421v-55h-205v-190h165v-55h-165v-203h205v-55h-268v258h-145l-46 -258h-64zM173 503l-33 -190h135v190h-102z" />
    <glyph glyph-name="Oslash" unicode="&#xd8;" 
d="M298 -10c-68 0 -121 27 -155 75l-59 -65h-71l103 114c-18 46 -27 102 -27 164c0 173 70 291 212 291c69 0 122 -28 156 -77l59 66h71l-103 -115c18 -45 27 -101 27 -163c0 -173 -70 -290 -213 -290zM154 279c0 -38 3 -77 11 -111l249 277c-22 41 -58 68 -114 68
c-117 0 -146 -117 -146 -234zM300 46c117 0 146 116 146 233c0 38 -3 76 -11 110l-249 -276c22 -41 58 -67 114 -67z" />
    <glyph glyph-name="infinity" unicode="&#x221e;" 
d="M275 214c-10 22 -49 97 -100 97c-35 0 -59 -36 -59 -97s24 -97 59 -97c51 0 90 75 100 97zM325 214c10 -22 49 -97 100 -97c35 0 59 36 59 97s-24 97 -59 97c-51 0 -90 -75 -100 -97zM300 168c-17 -31 -56 -99 -128 -99s-107 69 -107 145s35 145 107 145s111 -68 128 -99
c17 31 56 99 128 99s107 -69 107 -145s-35 -145 -107 -145s-111 68 -128 99z" />
    <glyph glyph-name="plusminus" unicode="&#xb1;" 
d="M521 54v-54h-441v54h441zM272 126v190h-192v54h192v188h57v-188h192v-54h-192v-190h-57z" />
    <glyph glyph-name="lessequal" unicode="&#x2264;" 
d="M526 117l-452 203v46l452 203v-61l-374 -165l374 -163v-63zM526 54v-54h-452v54h452z" />
    <glyph glyph-name="greaterequal" unicode="&#x2265;" 
d="M74 569l452 -203v-46l-452 -203v61l373 164l-373 164v63zM526 54v-54h-452v54h452z" />
    <glyph glyph-name="yen" unicode="&#xa5;" 
d="M116 225v55h117l-185 278h73l90 -136l89 -142h3l89 142l88 136h73l-184 -278h117v-55h-154v-170h154v-55h-370v55h153v170h-153z" />
    <glyph glyph-name="mu" unicode="&#xb5;" 
d="M265 0h-72v-178h-59v610h59v-378h84c58 0 96 23 115 46v332h59v-367c0 -17 6 -22 25 -22c22 0 54 7 54 7v-46s-37 -14 -70 -14c-50 0 -60 31 -60 57v15c-14 -26 -56 -62 -135 -62z" />
    <glyph glyph-name="partialdiff" unicode="&#x2202;" 
d="M500 188c0 -135 -98 -198 -201 -198c-100 0 -199 59 -199 206s99 206 197 206c50 0 80 -15 96 -26l-121 256h62l120 -263c24 -52 46 -117 46 -181zM300 43c108 0 140 74 140 153s-32 153 -140 153s-140 -74 -140 -153s32 -153 140 -153z" />
    <glyph glyph-name="summation" unicode="&#x2211;" 
d="M407 255l-204 -200h278v-55h-363v52l234 227l-234 227v52h363v-55h-278l204 -200v-48z" />
    <glyph glyph-name="product" unicode="&#x220f;" 
d="M134 0v558h332v-558h-63v503h-206v-503h-63z" />
    <glyph glyph-name="pi" unicode="&#x3c0;" 
d="M134 0v432h333v-432h-59v378h-215v-378h-59z" />
    <glyph glyph-name="integral" unicode="&#x222b;" 
d="M269 14v352c0 122 85 197 241 197v-54c-94 0 -178 -31 -178 -143v-352c0 -122 -85 -197 -241 -197v54c94 0 178 31 178 143z" />
    <glyph glyph-name="ordfeminine" unicode="&#xaa;" 
d="M264 230c-59 0 -105 27 -105 92c0 80 69 96 123 96s95 -16 95 -16v30c0 50 -10 95 -79 95c-56 0 -86 -29 -86 -78h-47c0 99 79 120 135 120c82 0 124 -46 124 -126v-156c0 -11 4 -15 15 -15c13 0 43 6 43 6v-36s-29 -12 -56 -12c-39 0 -44 25 -44 45v7
c-14 -18 -52 -52 -118 -52zM271 274c63 0 106 37 106 37v55c-12 1 -51 9 -88 9c-50 0 -81 -14 -81 -52c0 -29 17 -49 63 -49zM168 134v42h282v-42h-282z" />
    <glyph glyph-name="ordmasculine" unicode="&#xba;" 
d="M158 134v42h286v-42h-286zM300 271c64 0 102 43 102 128s-38 129 -102 129s-102 -44 -102 -129s38 -128 102 -128zM297 230c-69 0 -146 31 -146 167c0 138 80 172 151 172c73 0 147 -35 147 -168c0 -138 -80 -171 -152 -171z" />
    <glyph glyph-name="Omega" unicode="&#x2126;" 
d="M300 516c-105 0 -138 -77 -138 -179c0 -167 88 -284 88 -284v-53h-161v55h105s-96 90 -96 274c0 158 70 240 204 240c136 0 200 -85 200 -238c0 -187 -96 -276 -96 -276h105v-55h-161v53s88 117 88 284c0 102 -33 179 -138 179z" />
    <glyph glyph-name="ae" unicode="&#xe6;" 
d="M170 -10c-85 0 -137 49 -137 126c0 92 74 118 140 118c41 0 81 -10 98 -15v55c0 65 -28 116 -91 116c-56 0 -79 -42 -79 -96h-53c0 86 49 148 137 148c96 0 119 -76 119 -76s33 76 120 76c88 0 143 -75 143 -227v-3h-241c1 -111 37 -171 101 -171c57 0 83 48 83 99h56
c-3 -82 -52 -150 -139 -150c-51 0 -93 23 -121 67c-26 -37 -69 -67 -136 -67zM174 42c52 0 93 26 116 47c-10 25 -17 54 -20 87c-15 3 -51 10 -86 10c-62 0 -93 -22 -93 -70c0 -49 33 -74 83 -74zM420 391c-57 0 -85 -52 -92 -130h182c-7 79 -34 130 -90 130z" />
    <glyph glyph-name="oslash" unicode="&#xf8;" 
d="M299 -10c-51 0 -106 15 -144 56l-49 -46h-74l94 88c-16 32 -26 74 -26 128c0 176 108 226 201 226c51 0 105 -15 144 -56l49 46h74l-94 -88c16 -33 26 -75 26 -128c0 -176 -108 -226 -201 -226zM161 216c0 -33 4 -61 12 -84l229 214c-24 27 -58 41 -102 41
c-91 0 -139 -57 -139 -171zM299 45c92 0 140 57 140 171c0 33 -4 60 -12 84l-229 -214c23 -28 57 -41 101 -41z" />
    <glyph glyph-name="questiondown" unicode="&#xbf;" 
d="M439 16h60c0 -113 -92 -153 -193 -153c-134 0 -193 71 -193 152c0 83 61 140 192 235l35 -39c-130 -104 -164 -143 -164 -195s33 -98 132 -98c83 0 131 32 131 98zM361 432v-122h-102v122h102z" />
    <glyph glyph-name="exclamdown" unicode="&#xa1;" 
d="M268 -126v223l9 172h46l10 -172v-223h-65zM249 329v103h102v-103h-102z" />
    <glyph glyph-name="logicalnot" unicode="&#xac;" 
d="M373 59v131h-207v54h268v-185h-61z" />
    <glyph glyph-name="radical" unicode="&#x221a;" 
d="M265 0l-184 432h66l153 -374l233 574h64l-266 -632h-66z" />
    <glyph glyph-name="florin" unicode="&#x192;" 
d="M269 14v241h-148v54h148v57c0 122 85 197 241 197v-54c-94 0 -178 -31 -178 -143v-57h146v-54h-146v-241c0 -122 -85 -197 -241 -197v54c94 0 178 31 178 143z" />
    <glyph glyph-name="approxequal" unicode="&#x2248;" 
d="M196 351c58 0 164 -69 210 -69c45 0 76 69 76 69l33 -14s-36 -114 -111 -114c-58 0 -164 69 -209 69c-46 0 -77 -69 -77 -69l-33 14s36 114 111 114zM196 205c58 0 164 -69 210 -69c45 0 76 69 76 69l33 -14s-36 -114 -111 -114c-58 0 -164 69 -209 69
c-46 0 -77 -69 -77 -69l-33 14s36 114 111 114z" />
    <glyph glyph-name="Delta" unicode="&#x2206;" 
d="M530 0h-460l230 569zM155 52h290l-145 374z" />
    <glyph glyph-name="guillemotleft" unicode="&#xab;" 
d="M259 0l-187 216l187 216h70l-188 -216l188 -216h-70zM458 0l-187 216l187 216h70l-188 -216l188 -216h-70z" />
    <glyph glyph-name="guillemotright" unicode="&#xbb;" 
d="M528 216l-187 -216h-70l188 216l-188 216h70zM329 216l-187 -216h-70l188 216l-188 216h70z" />
    <glyph glyph-name="ellipsis" unicode="&#x2026;" 
d="M258 0v84h84v-84h-84zM70 0v84h84v-84h-84zM446 0v84h84v-84h-84z" />
    <glyph glyph-name="uni00A0" unicode="&#xa0;" 
 />
    <glyph glyph-name="Agrave" unicode="&#xc0;" 
d="M67 0l198 558h70l198 -558h-70l-47 139h-233l-48 -139h-68zM299 485l-99 -291h197zM309 597l-118 191h88l69 -191h-39z" />
    <glyph glyph-name="Atilde" unicode="&#xc3;" 
d="M67 0l198 558h70l198 -558h-70l-47 139h-233l-48 -139h-68zM299 485l-99 -291h197zM159 627l-32 15s44 114 114 114c52 0 74 -61 115 -61s74 61 74 61l32 -15s-45 -114 -115 -114c-51 0 -74 62 -115 62c-42 0 -73 -62 -73 -62z" />
    <glyph glyph-name="Otilde" unicode="&#xd5;" 
d="M299 -10c-144 0 -210 118 -210 287c0 175 70 292 212 292c144 0 210 -119 210 -288c0 -175 -70 -291 -212 -291zM300 46c117 0 146 116 146 233s-29 234 -146 234s-146 -117 -146 -234s29 -233 146 -233zM159 627l-32 15s44 114 114 114c52 0 74 -61 115 -61s74 61 74 61
l32 -15s-45 -114 -115 -114c-51 0 -74 62 -115 62c-42 0 -73 -62 -73 -62z" />
    <glyph glyph-name="OE" unicode="&#x152;" 
d="M310 0c-19 -6 -43 -11 -75 -11c-147 0 -208 106 -208 288c0 188 65 292 207 292c32 0 57 -5 76 -11h267v-55h-204v-190h164v-55h-164v-203h204v-55h-267zM92 279c0 -123 25 -236 148 -236c26 0 53 5 70 11v450c-19 7 -47 11 -70 11c-123 0 -148 -112 -148 -236z" />
    <glyph glyph-name="oe" unicode="&#x153;" 
d="M174 442c54 0 100 -27 127 -88c28 60 76 88 130 88c88 0 147 -75 147 -227v-3h-249c1 -110 41 -171 105 -171c57 0 87 48 87 99h56c-3 -82 -56 -150 -143 -150c-58 0 -105 30 -133 88c-26 -61 -73 -88 -128 -88c-85 0 -152 65 -152 225c0 164 71 227 153 227zM77 216
c0 -106 33 -175 98 -175s98 69 98 175s-33 175 -98 175s-98 -69 -98 -175zM427 391c-56 0 -88 -52 -96 -130h190c-8 79 -38 130 -94 130z" />
    <glyph glyph-name="endash" unicode="&#x2013;" 
d="M150 190v54h300v-54h-300z" />
    <glyph glyph-name="emdash" unicode="&#x2014;" 
d="M0 190v54h600v-54h-600z" />
    <glyph glyph-name="quotedblleft" unicode="&#x201c;" 
d="M463 609c11 0 18 -5 18 -17c0 -5 -1 -10 -3 -17l-67 -221h-109l135 234c10 18 17 21 26 21zM265 609c13 0 23 -7 15 -34l-67 -221h-109l135 234c10 18 17 21 26 21z" />
    <glyph glyph-name="quotedblright" unicode="&#x201d;" 
d="M137 343c-11 0 -18 5 -18 17c0 5 1 10 3 17l67 221h109l-135 -234c-10 -18 -17 -21 -26 -21zM335 343c-13 0 -23 7 -15 34l67 221h109l-135 -234c-10 -18 -17 -21 -26 -21z" />
    <glyph glyph-name="quoteleft" unicode="&#x2018;" 
d="M383 609c11 0 18 -5 18 -17c0 -5 -1 -10 -3 -17l-67 -221h-109l135 234c10 18 17 21 26 21z" />
    <glyph glyph-name="quoteright" unicode="&#x2019;" 
d="M217 343c-11 0 -18 5 -18 17c0 5 1 10 3 17l67 221h109l-135 -234c-10 -18 -17 -21 -26 -21z" />
    <glyph glyph-name="divide" unicode="&#xf7;" 
d="M120 185v65h360v-65h-360zM249 0v102h102v-102h-102zM249 330v102h102v-102h-102z" />
    <glyph glyph-name="lozenge" unicode="&#x25ca;" 
d="M300 67l213 212l-213 213l-213 -213zM300 -11l-290 290l290 290l290 -290z" />
    <glyph glyph-name="ydieresis" unicode="&#xff;" 
d="M88 -129c91 0 140 36 178 127l-185 434h65l153 -375l152 375h64l-186 -437c-56 -131 -121 -178 -241 -178v54zM160 551v81h81v-81h-81zM361 551v81h81v-81h-81z" />
    <glyph glyph-name="Ydieresis" unicode="&#x178;" 
d="M269 0v226l-221 332h73l90 -136l91 -144l90 144l88 136h73l-221 -334v-224h-63zM160 658v81h81v-81h-81zM361 658v81h81v-81h-81z" />
    <glyph glyph-name="fraction" unicode="&#x2044;" 
d="M104 0l341 558h51l-341 -558h-51z" />
    <glyph glyph-name="Euro" unicode="&#x20ac;" 
d="M321 515c-102 0 -144 -58 -159 -136h226v-54h-233c-1 -15 -1 -31 -1 -46c0 -14 0 -28 1 -41h233v-54h-227c14 -80 56 -140 159 -140c67 0 118 25 127 110h63c-6 -131 -114 -164 -198 -164c-148 0 -223 102 -223 288c0 189 77 291 227 291c79 0 188 -28 194 -164h-63
c-9 82 -56 110 -126 110z" />
    <glyph glyph-name="guilsinglleft" unicode="&#x2039;" 
d="M358 0l-187 216l187 216h70l-188 -216l188 -216h-70z" />
    <glyph glyph-name="guilsinglright" unicode="&#x203a;" 
d="M428 216l-187 -216h-70l188 216l-188 216h70z" />
    <glyph glyph-name="daggerdbl" unicode="&#x2021;" 
d="M272 74v207h-127v49h127v130h-127v50h127v122h56v-122h127v-50h-127v-130h127v-49h-127v-207h-56z" />
    <glyph glyph-name="periodcentered" unicode="&#xb7;" 
d="M249 228v102h102v-102h-102z" />
    <glyph glyph-name="quotesinglbase" unicode="&#x201a;" 
d="M235 -153c-15 0 -23 6 -23 21c0 5 1 14 2 19l36 215h105l-93 -234c-7 -17 -15 -21 -27 -21z" />
    <glyph glyph-name="quotedblbase" unicode="&#x201e;" 
d="M327 -153c-18 0 -26 9 -22 34l37 221h105l-93 -234c-7 -17 -15 -21 -27 -21zM129 -153c-15 0 -23 6 -23 21c0 5 1 14 2 19l36 215h105l-93 -234c-7 -17 -15 -21 -27 -21z" />
    <glyph glyph-name="perthousand" unicode="&#x2030;" 
d="M27 101l90 120h31v-31l-67 -89h-54zM110 300c30 0 35 32 35 113s-5 113 -35 113s-35 -32 -35 -113s5 -113 35 -113zM109 257c-64 0 -83 43 -83 154c0 113 20 158 85 158c64 0 83 -43 83 -154c0 -113 -20 -158 -85 -158zM271 33c30 0 35 32 35 113s-5 113 -35 113
s-35 -32 -35 -113s5 -113 35 -113zM270 -10c-64 0 -83 43 -83 154c0 113 20 158 85 158c64 0 83 -43 83 -154c0 -113 -20 -158 -85 -158zM490 33c30 0 35 32 35 113s-5 113 -35 113s-35 -32 -35 -113s5 -113 35 -113zM489 -10c-64 0 -83 43 -83 154c0 113 20 158 85 158
c64 0 83 -43 83 -154c0 -113 -20 -158 -85 -158zM354 458l-90 -120h-31v31l67 89h54z" />
    <glyph glyph-name="Acircumflex" unicode="&#xc2;" 
d="M67 0l198 558h70l198 -558h-70l-47 139h-233l-48 -139h-68zM299 485l-99 -291h197zM174 597l89 191h74l89 -191h-40l-86 123l-86 -123h-40z" />
    <glyph glyph-name="Ecircumflex" unicode="&#xca;" 
d="M183 597l89 191h74l89 -191h-40l-86 123l-86 -123h-40zM134 0v558h344v-55h-281v-190h247v-55h-247v-203h281v-55h-344z" />
    <glyph glyph-name="Aacute" unicode="&#xc1;" 
d="M67 0l198 558h70l198 -558h-70l-47 139h-233l-48 -139h-68zM299 485l-99 -291h197zM253 597l69 191h88l-118 -191h-39z" />
    <glyph glyph-name="Edieresis" unicode="&#xcb;" 
d="M169 658v81h81v-81h-81zM370 658v81h81v-81h-81zM134 0v558h344v-55h-281v-190h247v-55h-247v-203h281v-55h-344z" />
    <glyph glyph-name="Egrave" unicode="&#xc8;" 
d="M134 0v558h344v-55h-281v-190h247v-55h-247v-203h281v-55h-344zM318 597l-118 191h88l69 -191h-39z" />
    <glyph glyph-name="Iacute" unicode="&#xcd;" 
d="M133 0v55h136v448h-136v55h335v-55h-136v-448h136v-55h-335zM253 597l69 191h88l-118 -191h-39z" />
    <glyph glyph-name="Icircumflex" unicode="&#xce;" 
d="M133 0v55h136v448h-136v55h335v-55h-136v-448h136v-55h-335zM174 597l89 191h74l89 -191h-40l-86 123l-86 -123h-40z" />
    <glyph glyph-name="Idieresis" unicode="&#xcf;" 
d="M133 0v55h136v448h-136v55h335v-55h-136v-448h136v-55h-335zM160 658v81h81v-81h-81zM361 658v81h81v-81h-81z" />
    <glyph glyph-name="Igrave" unicode="&#xcc;" 
d="M133 0v55h136v448h-136v55h335v-55h-136v-448h136v-55h-335zM309 597l-118 191h88l69 -191h-39z" />
    <glyph glyph-name="Oacute" unicode="&#xd3;" 
d="M253 597l69 191h88l-118 -191h-39zM299 -10c-144 0 -210 118 -210 287c0 175 70 292 212 292c144 0 210 -119 210 -288c0 -175 -70 -291 -212 -291zM300 46c117 0 146 116 146 233s-29 234 -146 234s-146 -117 -146 -234s29 -233 146 -233z" />
    <glyph glyph-name="Ocircumflex" unicode="&#xd4;" 
d="M174 597l89 191h74l89 -191h-40l-86 123l-86 -123h-40zM299 -10c-144 0 -210 118 -210 287c0 175 70 292 212 292c144 0 210 -119 210 -288c0 -175 -70 -291 -212 -291zM300 46c117 0 146 116 146 233s-29 234 -146 234s-146 -117 -146 -234s29 -233 146 -233z" />
    <glyph glyph-name="apple" 
d="M270 115c-79 0 -143 68 -143 184c0 98 45 161 117 184c-55 -35 -73 -102 -73 -169c0 -101 41 -166 103 -166c31 0 51 16 52 32l-1 1c-9 -3 -23 -4 -30 -4c-47 0 -78 52 -78 143c0 81 24 165 111 165c79 0 143 -68 143 -184c0 -91 -40 -160 -118 -185c56 36 74 103 74 170
c0 100 -41 166 -103 166c-31 0 -51 -16 -52 -32l1 -1c9 3 23 4 30 4c47 0 78 -52 78 -143c0 -81 -24 -165 -111 -165zM284 79c120 0 234 71 234 230c0 127 -73 212 -204 212c-120 0 -234 -71 -234 -230c0 -127 73 -212 204 -212zM5 0v590h590v-590h-590z" />
    <glyph glyph-name="Ograve" unicode="&#xd2;" 
d="M299 -10c-144 0 -210 118 -210 287c0 175 70 292 212 292c144 0 210 -119 210 -288c0 -175 -70 -291 -212 -291zM300 46c117 0 146 116 146 233s-29 234 -146 234s-146 -117 -146 -234s29 -233 146 -233zM309 597l-118 191h88l69 -191h-39z" />
    <glyph glyph-name="Uacute" unicode="&#xda;" 
d="M253 597l69 191h88l-118 -191h-39zM300 -10c-123 0 -182 57 -182 203v365h63v-365c0 -107 32 -147 119 -147c88 0 120 40 120 147v365h63v-365c0 -146 -60 -203 -183 -203z" />
    <glyph glyph-name="Ucircumflex" unicode="&#xdb;" 
d="M174 597l89 191h74l89 -191h-40l-86 123l-86 -123h-40zM300 -10c-123 0 -182 57 -182 203v365h63v-365c0 -107 32 -147 119 -147c88 0 120 40 120 147v365h63v-365c0 -146 -60 -203 -183 -203z" />
    <glyph glyph-name="Ugrave" unicode="&#xd9;" 
d="M300 -10c-123 0 -182 57 -182 203v365h63v-365c0 -107 32 -147 119 -147c88 0 120 40 120 147v365h63v-365c0 -146 -60 -203 -183 -203zM309 597l-118 191h88l69 -191h-39z" />
    <glyph glyph-name="dotlessi" unicode="&#x131;" 
d="M118 0v54h160v324h-160v54h219v-378h147v-54h-366z" />
    <glyph glyph-name="circumflex" unicode="&#x2c6;" 
d="M174 490l89 191h74l89 -191h-40l-86 123l-86 -123h-40z" />
    <glyph glyph-name="tilde" unicode="&#x2dc;" 
d="M165 520l-32 15s44 114 114 114c52 0 74 -61 115 -61s74 61 74 61l32 -15s-45 -114 -115 -114c-51 0 -74 62 -115 62c-42 0 -73 -62 -73 -62z" />
    <glyph glyph-name="macron" unicode="&#xaf;" 
d="M168 550v54h265v-54h-265z" />
    <glyph glyph-name="breve" unicode="&#x2d8;" 
d="M300 525c-89 0 -152 91 -161 117l27 23c13 -19 70 -74 134 -74s121 55 134 74l27 -23c-9 -26 -72 -117 -161 -117z" />
    <glyph glyph-name="dotaccent" unicode="&#x2d9;" 
d="M259 539v81h81v-81h-81z" />
    <glyph glyph-name="ring" unicode="&#x2da;" 
d="M300 476c-72 0 -129 57 -129 127s57 127 129 127s129 -57 129 -127s-57 -127 -129 -127zM300 521c46 0 82 36 82 82s-36 82 -82 82s-82 -36 -82 -82s36 -82 82 -82z" />
    <glyph glyph-name="cedilla" unicode="&#xb8;" 
d="M289 -188c-40 0 -67 15 -76 21l10 34c12 -6 32 -12 51 -12c27 0 41 11 41 24c0 28 -60 43 -78 47l16 74h39l-9 -45c54 -16 91 -40 91 -79c0 -35 -29 -64 -85 -64z" />
    <glyph glyph-name="hungarumlaut" unicode="&#x2dd;" 
d="M128 490l69 191h88l-118 -191h-39zM314 490l69 191h88l-118 -191h-39z" />
    <glyph glyph-name="ogonek" unicode="&#x2db;" 
d="M304 -188c-52 0 -88 25 -88 65c0 44 43 72 122 123h46c-75 -61 -105 -89 -105 -115c0 -21 18 -28 38 -28s46 7 59 12l8 -37c-14 -8 -44 -20 -80 -20z" />
    <glyph glyph-name="caron" unicode="&#x2c7;" 
d="M263 490l-89 191h40l86 -123l86 123h40l-89 -191h-74z" />
    <glyph glyph-name="uni0326" unicode="&#x326;" 
d="M268 -214c-12 0 -21 5 -18 24l26 151h76l-66 -161c-5 -12 -10 -14 -18 -14z" />
    <glyph glyph-name="uni0312" unicode="&#x312;" 
d="M332 671c14 0 21 -6 18 -24l-26 -151h-76l66 161c5 12 10 14 18 14z" />
    <glyph glyph-name="uni00AD" unicode="&#xad;" 
d="M130 252v55h340v-55h-340z" />
    <glyph glyph-name="currency" unicode="&#xa4;" 
d="M212 277c0 -60 34 -98 88 -98s88 38 88 98s-34 98 -88 98s-88 -38 -88 -98zM447 277c0 -34 -9 -64 -26 -87l79 -79l-36 -36l-77 78c-25 -14 -53 -24 -87 -24s-62 10 -87 24l-77 -78l-36 36l79 79c-17 23 -26 53 -26 87s9 64 26 87l-79 79l36 36l77 -78c25 14 53 24 87 24
s62 -10 87 -24l77 78l36 -36l-79 -79c17 -23 26 -53 26 -87z" />
    <glyph glyph-name="Amacron" unicode="&#x100;" 
d="M67 0l198 558h70l198 -558h-70l-47 139h-233l-48 -139h-68zM299 485l-99 -291h197zM168 657v54h265v-54h-265z" />
    <glyph glyph-name="Abreve" unicode="&#x102;" 
d="M67 0l198 558h70l198 -558h-70l-47 139h-233l-48 -139h-68zM299 485l-99 -291h197zM300 632c-89 0 -152 91 -161 117l27 23c13 -19 70 -74 134 -74s121 55 134 74l27 -23c-9 -26 -72 -117 -161 -117z" />
    <glyph glyph-name="Aogonek" unicode="&#x104;" 
d="M453 -188c-52 0 -88 25 -88 65c0 44 43 72 122 123h-24l-47 139h-233l-48 -139h-68l198 558h70l198 -558c-75 -61 -105 -89 -105 -115c0 -21 18 -28 38 -28s46 7 59 12l8 -37c-14 -8 -44 -20 -80 -20zM299 485l-99 -291h197z" />
    <glyph glyph-name="AEacute" unicode="&#x1fc;" 
d="M253 597l69 191h88l-118 -191h-39zM20 0l102 558h421v-55h-205v-190h165v-55h-165v-203h205v-55h-268v258h-145l-46 -258h-64zM173 503l-33 -190h135v190h-102z" />
    <glyph glyph-name="Cacute" unicode="&#x106;" 
d="M257 597l69 191h88l-118 -191h-39zM310 -10c-144 0 -221 100 -221 288c0 189 78 291 226 291c85 0 189 -34 195 -179h-63c-10 84 -54 125 -133 125c-135 0 -160 -121 -160 -236s25 -235 160 -235c79 0 123 41 133 125h63c-6 -136 -106 -179 -200 -179z" />
    <glyph glyph-name="Ccaron" unicode="&#x10c;" 
d="M267 597l-89 191h40l86 -123l86 123h40l-89 -191h-74zM310 -10c-144 0 -221 100 -221 288c0 189 78 291 226 291c85 0 189 -34 195 -179h-63c-10 84 -54 125 -133 125c-135 0 -160 -121 -160 -236s25 -235 160 -235c79 0 123 41 133 125h63c-6 -136 -106 -179 -200 -179z
" />
    <glyph glyph-name="Ccircumflex" unicode="&#x108;" 
d="M178 597l89 191h74l89 -191h-40l-86 123l-86 -123h-40zM310 -10c-144 0 -221 100 -221 288c0 189 78 291 226 291c85 0 189 -34 195 -179h-63c-10 84 -54 125 -133 125c-135 0 -160 -121 -160 -236s25 -235 160 -235c79 0 123 41 133 125h63c-6 -136 -106 -179 -200 -179
z" />
    <glyph glyph-name="Cdotaccent" unicode="&#x10a;" 
d="M310 -10c-144 0 -221 100 -221 288c0 189 78 291 226 291c85 0 189 -34 195 -179h-63c-10 84 -54 125 -133 125c-135 0 -160 -121 -160 -236s25 -235 160 -235c79 0 123 41 133 125h63c-6 -136 -106 -179 -200 -179zM263 646v81h81v-81h-81z" />
    <glyph glyph-name="Dcaron" unicode="&#x10e;" 
d="M263 597l-89 191h40l86 -123l86 123h40l-89 -191h-74zM134 0v558h148c180 0 229 -125 229 -278c0 -157 -52 -280 -229 -280h-148zM197 503v-448h85c150 0 164 127 164 224s-14 224 -164 224h-85z" />
    <glyph glyph-name="Dcroat" unicode="&#x110;" 
d="M85 262v55h49v241h148c180 0 229 -125 229 -278c0 -157 -52 -280 -229 -280h-148v262h-49zM197 503v-186h120v-55h-120v-207h85c150 0 164 127 164 224s-14 224 -164 224h-85z" />
    <glyph glyph-name="Ebreve" unicode="&#x114;" 
d="M134 0v558h344v-55h-281v-190h247v-55h-247v-203h281v-55h-344zM309 632c-89 0 -152 91 -161 117l27 23c13 -19 70 -74 134 -74s121 55 134 74l27 -23c-9 -26 -72 -117 -161 -117z" />
    <glyph glyph-name="Ecaron" unicode="&#x11a;" 
d="M272 597l-89 191h40l86 -123l86 123h40l-89 -191h-74zM134 0v558h344v-55h-281v-190h247v-55h-247v-203h281v-55h-344z" />
    <glyph glyph-name="Edotaccent" unicode="&#x116;" 
d="M134 0v558h344v-55h-281v-190h247v-55h-247v-203h281v-55h-344zM268 646v81h81v-81h-81z" />
    <glyph glyph-name="Emacron" unicode="&#x112;" 
d="M134 0v558h344v-55h-281v-190h247v-55h-247v-203h281v-55h-344zM177 657v54h265v-54h-265z" />
    <glyph glyph-name="Eogonek" unicode="&#x118;" 
d="M134 0v558h344v-55h-281v-190h247v-55h-247v-203h281v-55c-75 -61 -105 -89 -105 -115c0 -21 18 -28 38 -28s46 7 59 12l8 -37c-14 -8 -44 -20 -80 -20c-52 0 -88 25 -88 65c0 44 43 72 122 123h-298z" />
    <glyph glyph-name="Eng" unicode="&#x14a;" 
d="M217 -127c91 0 175 28 186 127h-24l-191 485l6 -140v-345h-60v558h87l191 -485l-6 140v345h60v-536c0 -127 -87 -205 -249 -205v56z" />
    <glyph glyph-name="Gbreve" unicode="&#x11e;" 
d="M300 515c-111 0 -145 -110 -145 -233c0 -119 32 -238 148 -238c64 0 106 36 122 53v145h-138v55h201v-297h-48v56c-3 -4 -47 -66 -148 -66c-156 0 -202 146 -202 290c0 186 76 289 211 289c83 0 182 -39 188 -194h-63c-9 91 -51 140 -126 140zM300 632
c-89 0 -152 91 -161 117l27 23c13 -19 70 -74 134 -74s121 55 134 74l27 -23c-9 -26 -72 -117 -161 -117z" />
    <glyph glyph-name="Gcircumflex" unicode="&#x11c;" 
d="M300 515c-111 0 -145 -110 -145 -233c0 -119 32 -238 148 -238c64 0 106 36 122 53v145h-138v55h201v-297h-48v56c-3 -4 -47 -66 -148 -66c-156 0 -202 146 -202 290c0 186 76 289 211 289c83 0 182 -39 188 -194h-63c-9 91 -51 140 -126 140zM174 597l89 191h74l89 -191
h-40l-86 123l-86 -123h-40z" />
    <glyph glyph-name="Gcommaaccent" unicode="&#x122;" 
d="M300 515c-111 0 -145 -110 -145 -233c0 -119 32 -238 148 -238c64 0 106 36 122 53v145h-138v55h201v-297h-48v56c-3 -4 -47 -66 -148 -66c-156 0 -202 146 -202 290c0 186 76 289 211 289c83 0 182 -39 188 -194h-63c-9 91 -51 140 -126 140zM244 -214
c-12 0 -21 5 -18 24l26 151h76l-66 -161c-5 -12 -10 -14 -18 -14z" />
    <glyph glyph-name="Gdotaccent" unicode="&#x120;" 
d="M300 515c-111 0 -145 -110 -145 -233c0 -119 32 -238 148 -238c64 0 106 36 122 53v145h-138v55h201v-297h-48v56c-3 -4 -47 -66 -148 -66c-156 0 -202 146 -202 290c0 186 76 289 211 289c83 0 182 -39 188 -194h-63c-9 91 -51 140 -126 140zM259 646v81h81v-81h-81z
" />
    <glyph glyph-name="Hbar" unicode="&#x126;" 
d="M83 403v53h51v102h63v-102h206v102h63v-102h51v-53h-51v-403h-63v258h-206v-258h-63v403h-51zM197 313h206v90h-206v-90z" />
    <glyph glyph-name="Hcircumflex" unicode="&#x124;" 
d="M174 597l89 191h74l89 -191h-40l-86 123l-86 -123h-40zM134 0v558h63v-245h206v245h63v-558h-63v258h-206v-258h-63z" />
    <glyph glyph-name="Ibreve" unicode="&#x12c;" 
d="M133 0v55h136v448h-136v55h335v-55h-136v-448h136v-55h-335zM300 632c-89 0 -152 91 -161 117l27 23c13 -19 70 -74 134 -74s121 55 134 74l27 -23c-9 -26 -72 -117 -161 -117z" />
    <glyph glyph-name="Imacron" unicode="&#x12a;" 
d="M133 0v55h136v448h-136v55h335v-55h-136v-448h136v-55h-335zM168 657v54h265v-54h-265z" />
    <glyph glyph-name="Iogonek" unicode="&#x12e;" 
d="M133 0v55h136v448h-136v55h335v-55h-136v-448h136v-55h-108c-75 -61 -105 -89 -105 -115c0 -21 18 -28 38 -28s46 7 59 12l8 -37c-14 -8 -44 -20 -80 -20c-52 0 -88 25 -88 65c0 44 43 72 122 123h-181z" />
    <glyph glyph-name="Itilde" unicode="&#x128;" 
d="M133 0v55h136v448h-136v55h335v-55h-136v-448h136v-55h-335zM159 627l-32 15s44 114 114 114c52 0 74 -61 115 -61s74 61 74 61l32 -15s-45 -114 -115 -114c-51 0 -74 62 -115 62c-42 0 -73 -62 -73 -62z" />
    <glyph glyph-name="Idotaccent" unicode="&#x130;" 
d="M133 0v55h136v448h-136v55h335v-55h-136v-448h136v-55h-335zM259 646v81h81v-81h-81z" />
    <glyph glyph-name="Jcircumflex" unicode="&#x134;" 
d="M321 597l89 191h74l89 -191h-40l-86 123l-86 -123h-40zM293 -10c-132 0 -187 78 -187 187c0 9 0 21 2 34h63c-1 -7 -2 -23 -2 -36c0 -74 33 -129 123 -129c94 0 123 59 123 162v350h63v-350c0 -142 -55 -218 -185 -218z" />
    <glyph glyph-name="Kcommaaccent" unicode="&#x136;" 
d="M293 -214c-12 0 -21 5 -18 24l26 151h76l-66 -161c-5 -12 -10 -14 -18 -14zM134 0v558h63v-277l247 277h81l-216 -237l240 -321h-79l-201 277l-72 -78v-199h-63z" />
    <glyph glyph-name="Lacute" unicode="&#x139;" 
d="M159 597l69 191h88l-118 -191h-39zM134 0v558h63v-503h286v-55h-349z" />
    <glyph glyph-name="Lcaron" unicode="&#x13d;" 
d="M359 383c-12 0 -21 5 -18 24l26 151h76l-66 -161c-5 -12 -10 -14 -18 -14zM134 0v558h63v-503h286v-55h-349z" />
    <glyph glyph-name="Lcommaaccent" unicode="&#x13b;" 
d="M283 -214c-12 0 -21 5 -18 24l26 151h76l-66 -161c-5 -12 -10 -14 -18 -14zM134 0v558h63v-503h286v-55h-349z" />
    <glyph glyph-name="Ldot" unicode="&#x13f;" 
d="M134 0v558h63v-503h286v-55h-349zM395 234v102h102v-102h-102z" />
    <glyph glyph-name="Nacute" unicode="&#x143;" 
d="M466 0h-87l-191 485l6 -140v-345h-60v558h87l191 -485l-6 140v345h60v-558zM253 597l69 191h88l-118 -191h-39z" />
    <glyph glyph-name="Ncaron" unicode="&#x147;" 
d="M466 0h-87l-191 485l6 -140v-345h-60v558h87l191 -485l-6 140v345h60v-558zM263 597l-89 191h40l86 -123l86 123h40l-89 -191h-74z" />
    <glyph glyph-name="Ncommaaccent" unicode="&#x145;" 
d="M466 0h-87l-191 485l6 -140v-345h-60v558h87l191 -485l-6 140v345h60v-558zM269 -214c-12 0 -21 5 -18 24l26 151h76l-66 -161c-5 -12 -10 -14 -18 -14z" />
    <glyph glyph-name="Obreve" unicode="&#x14e;" 
d="M299 -10c-144 0 -210 118 -210 287c0 175 70 292 212 292c144 0 210 -119 210 -288c0 -175 -70 -291 -212 -291zM300 46c117 0 146 116 146 233s-29 234 -146 234s-146 -117 -146 -234s29 -233 146 -233zM300 632c-89 0 -152 91 -161 117l27 23c13 -19 70 -74 134 -74
s121 55 134 74l27 -23c-9 -26 -72 -117 -161 -117z" />
    <glyph glyph-name="Ohungarumlaut" unicode="&#x150;" 
d="M186 597l69 191h88l-118 -191h-39zM372 597l69 191h88l-118 -191h-39zM299 -10c-144 0 -210 118 -210 287c0 175 70 292 212 292c144 0 210 -119 210 -288c0 -175 -70 -291 -212 -291zM300 46c117 0 146 116 146 233s-29 234 -146 234s-146 -117 -146 -234
s29 -233 146 -233z" />
    <glyph glyph-name="Omacron" unicode="&#x14c;" 
d="M168 657v54h265v-54h-265zM299 -10c-144 0 -210 118 -210 287c0 175 70 292 212 292c144 0 210 -119 210 -288c0 -175 -70 -291 -212 -291zM300 46c117 0 146 116 146 233s-29 234 -146 234s-146 -117 -146 -234s29 -233 146 -233z" />
    <glyph glyph-name="Oslashacute" unicode="&#x1fe;" 
d="M298 -10c-68 0 -121 27 -155 75l-59 -65h-71l103 114c-18 46 -27 102 -27 164c0 173 70 291 212 291c69 0 122 -28 156 -77l59 66h71l-103 -115c18 -45 27 -101 27 -163c0 -173 -70 -290 -213 -290zM154 279c0 -38 3 -77 11 -111l249 277c-22 41 -58 68 -114 68
c-117 0 -146 -117 -146 -234zM300 46c117 0 146 116 146 233c0 38 -3 76 -11 110l-249 -276c22 -41 58 -67 114 -67zM244 597l69 191h88l-118 -191h-39z" />
    <glyph glyph-name="Racute" unicode="&#x154;" 
d="M243 597l69 191h88l-118 -191h-39zM491 392c0 -92 -62 -145 -149 -165l186 -227h-80l-174 220h-77v-220h-63v558h129c142 0 228 -57 228 -166zM197 503v-230h67c118 0 162 50 162 115s-44 115 -162 115h-67z" />
    <glyph glyph-name="Rcaron" unicode="&#x158;" 
d="M253 597l-89 191h40l86 -123l86 123h40l-89 -191h-74zM491 392c0 -92 -62 -145 -149 -165l186 -227h-80l-174 220h-77v-220h-63v558h129c142 0 228 -57 228 -166zM197 503v-230h67c118 0 162 50 162 115s-44 115 -162 115h-67z" />
    <glyph glyph-name="Rcommaaccent" unicode="&#x156;" 
d="M286 -214c-12 0 -21 5 -18 24l26 151h76l-66 -161c-5 -12 -10 -14 -18 -14zM491 392c0 -92 -62 -145 -149 -165l186 -227h-80l-174 220h-77v-220h-63v558h129c142 0 228 -57 228 -166zM197 503v-230h67c118 0 162 50 162 115s-44 115 -162 115h-67z" />
    <glyph glyph-name="Sacute" unicode="&#x15a;" 
d="M253 597l69 191h88l-118 -191h-39zM300 -10c-118 0 -200 55 -200 166h63c4 -69 51 -109 139 -109c79 0 135 33 135 98c0 46 -29 72 -84 91l-119 42c-74 26 -123 69 -123 144c0 97 82 147 186 147c106 0 184 -51 184 -164h-62c-3 91 -72 107 -124 107
c-79 0 -119 -37 -119 -89c0 -41 25 -69 76 -87l119 -42c89 -31 130 -70 130 -145c0 -111 -90 -159 -201 -159z" />
    <glyph glyph-name="Scedilla" unicode="&#x15e;" 
d="M336 -121c0 28 -60 43 -78 47l14 65c-103 8 -172 63 -172 165h63c4 -69 51 -109 139 -109c79 0 135 33 135 98c0 46 -29 69 -84 89l-121 45c-72 27 -121 67 -121 142c0 98 82 148 186 148c106 0 184 -51 184 -164h-62c-3 91 -72 107 -124 107c-79 0 -119 -37 -119 -89
c0 -41 25 -69 76 -87l119 -42c89 -31 130 -70 130 -145c0 -108 -84 -156 -190 -159l-7 -35c54 -16 91 -40 91 -79c0 -35 -29 -64 -85 -64c-40 0 -67 15 -76 21l10 34c12 -6 32 -12 51 -12c27 0 41 11 41 24z" />
    <glyph glyph-name="Scircumflex" unicode="&#x15c;" 
d="M174 597l89 191h74l89 -191h-40l-86 123l-86 -123h-40zM300 -10c-118 0 -200 55 -200 166h63c4 -69 51 -109 139 -109c79 0 135 33 135 98c0 46 -29 72 -84 91l-119 42c-74 26 -123 69 -123 144c0 97 82 147 186 147c106 0 184 -51 184 -164h-62c-3 91 -72 107 -124 107
c-79 0 -119 -37 -119 -89c0 -41 25 -69 76 -87l119 -42c89 -31 130 -70 130 -145c0 -111 -90 -159 -201 -159z" />
    <glyph glyph-name="Scommaaccent" unicode="&#x218;" 
d="M268 -214c-12 0 -21 5 -18 24l26 151h76l-66 -161c-5 -12 -10 -14 -18 -14zM300 -10c-118 0 -200 55 -200 166h63c4 -69 51 -109 139 -109c79 0 135 33 135 98c0 46 -29 72 -84 91l-119 42c-74 26 -123 69 -123 144c0 97 82 147 186 147c106 0 184 -51 184 -164h-62
c-3 91 -72 107 -124 107c-79 0 -119 -37 -119 -89c0 -41 25 -69 76 -87l119 -42c89 -31 130 -70 130 -145c0 -111 -90 -159 -201 -159z" />
    <glyph glyph-name="Tbar" unicode="&#x166;" 
d="M147 259v54h122v190h-191v55h446v-55h-192v-190h121v-54h-121v-259h-63v259h-122z" />
    <glyph glyph-name="Tcaron" unicode="&#x164;" 
d="M268 0v503h-191v55h446v-55h-192v-503h-63zM263 597l-89 191h40l86 -123l86 123h40l-89 -191h-74z" />
    <glyph glyph-name="Tcommaaccent" unicode="&#x162;" 
d="M269 -214c-12 0 -21 5 -18 24l26 151h76l-66 -161c-5 -12 -10 -14 -18 -14zM269 0v503h-191v55h446v-55h-192v-503h-63z" />
    <glyph glyph-name="uni021A" unicode="&#x21a;" 
d="M269 -214c-12 0 -21 5 -18 24l26 151h76l-66 -161c-5 -12 -10 -14 -18 -14zM269 0v503h-191v55h446v-55h-192v-503h-63z" />
    <glyph glyph-name="Ubreve" unicode="&#x16c;" 
d="M300 -10c-123 0 -182 57 -182 203v365h63v-365c0 -107 32 -147 119 -147c88 0 120 40 120 147v365h63v-365c0 -146 -60 -203 -183 -203zM300 632c-89 0 -152 91 -161 117l27 23c13 -19 70 -74 134 -74s121 55 134 74l27 -23c-9 -26 -72 -117 -161 -117z" />
    <glyph glyph-name="Uhungarumlaut" unicode="&#x170;" 
d="M300 -10c-123 0 -182 57 -182 203v365h63v-365c0 -107 32 -147 119 -147c88 0 120 40 120 147v365h63v-365c0 -146 -60 -203 -183 -203zM187 597l69 191h88l-118 -191h-39zM373 597l69 191h88l-118 -191h-39z" />
    <glyph glyph-name="Umacron" unicode="&#x16a;" 
d="M300 -10c-123 0 -182 57 -182 203v365h63v-365c0 -107 32 -147 119 -147c88 0 120 40 120 147v365h63v-365c0 -146 -60 -203 -183 -203zM168 657v54h265v-54h-265z" />
    <glyph glyph-name="Uogonek" unicode="&#x172;" 
d="M429 28c-109 -90 -139 -117 -139 -143c0 -21 18 -28 38 -28s46 7 59 12l8 -37c-14 -8 -44 -20 -80 -20c-52 0 -88 25 -88 65c0 43 40 71 114 119c-11 -3 -22 -6 -48 -6c-116 0 -175 59 -175 203v365h63v-365c0 -107 32 -147 119 -147c88 0 120 40 120 147v365h63v-365
c0 -78 -18 -135 -54 -165z" />
    <glyph glyph-name="Uring" unicode="&#x16e;" 
d="M300 583c-72 0 -129 57 -129 127s57 127 129 127s129 -57 129 -127s-57 -127 -129 -127zM300 628c46 0 82 36 82 82s-36 82 -82 82s-82 -36 -82 -82s36 -82 82 -82zM300 -10c-123 0 -182 57 -182 203v365h63v-365c0 -107 32 -147 119 -147c88 0 120 40 120 147v365h63
v-365c0 -146 -60 -203 -183 -203z" />
    <glyph glyph-name="Utilde" unicode="&#x168;" 
d="M300 -10c-123 0 -182 57 -182 203v365h63v-365c0 -107 32 -147 119 -147c88 0 120 40 120 147v365h63v-365c0 -146 -60 -203 -183 -203zM159 627l-32 15s44 114 114 114c52 0 74 -61 115 -61s74 61 74 61l32 -15s-45 -114 -115 -114c-51 0 -74 62 -115 62
c-42 0 -73 -62 -73 -62z" />
    <glyph glyph-name="Wacute" unicode="&#x1e82;" 
d="M253 597l69 191h88l-118 -191h-39zM266 365h69l91 -308l19 180l38 321h64l-73 -558h-88l-86 291l-86 -291h-88l-73 558h65l38 -321l19 -180z" />
    <glyph glyph-name="Wcircumflex" unicode="&#x174;" 
d="M174 597l89 191h74l89 -191h-40l-86 123l-86 -123h-40zM266 365h69l91 -308l19 180l38 321h64l-73 -558h-88l-86 291l-86 -291h-88l-73 558h65l38 -321l19 -180z" />
    <glyph glyph-name="Wdieresis" unicode="&#x1e84;" 
d="M160 658v81h81v-81h-81zM361 658v81h81v-81h-81zM266 365h69l91 -308l19 180l38 321h64l-73 -558h-88l-86 291l-86 -291h-88l-73 558h65l38 -321l19 -180z" />
    <glyph glyph-name="Wgrave" unicode="&#x1e80;" 
d="M266 365h69l91 -308l19 180l38 321h64l-73 -558h-88l-86 291l-86 -291h-88l-73 558h65l38 -321l19 -180zM309 597l-118 191h88l69 -191h-39z" />
    <glyph glyph-name="Ycircumflex" unicode="&#x176;" 
d="M269 0v226l-221 332h73l90 -136l91 -144l90 144l88 136h73l-221 -334v-224h-63zM174 597l89 191h74l89 -191h-40l-86 123l-86 -123h-40z" />
    <glyph glyph-name="Ygrave" unicode="&#x1ef2;" 
d="M269 0v226l-221 332h73l90 -136l91 -144l90 144l88 136h73l-221 -334v-224h-63zM310 597l-118 191h88l69 -191h-39z" />
    <glyph glyph-name="Zacute" unicode="&#x179;" 
d="M258 597l69 191h88l-118 -191h-39zM107 0v50l308 453h-303v55h377v-50l-309 -453h312v-55h-385z" />
    <glyph glyph-name="Zdotaccent" unicode="&#x17b;" 
d="M107 0v50l308 453h-303v55h377v-50l-309 -453h312v-55h-385zM264 646v81h81v-81h-81z" />
    <glyph glyph-name="IJ" unicode="&#x132;" 
d="M118 306v252h63v-252h-63zM300 -10c-123 0 -182 57 -182 203v24h63v-24c0 -107 32 -147 119 -147c88 0 120 40 120 147v365h63v-365c0 -146 -60 -203 -183 -203z" />
    <glyph glyph-name="uni018F" unicode="&#x18f;" 
d="M88 279v14h358c-3 115 -39 221 -151 221c-86 0 -130 -62 -144 -142h-64c22 120 94 197 210 197c143 0 213 -118 213 -290s-70 -289 -213 -289s-209 117 -209 289zM299 45c105 0 139 93 146 194h-292c7 -103 41 -194 146 -194z" />
    <glyph glyph-name="amacron" unicode="&#x101;" 
d="M244 -10c-83 0 -146 36 -146 121c0 100 88 124 167 124c66 0 127 -17 127 -17v39c0 73 -8 132 -110 132c-79 0 -117 -35 -117 -100h-59c0 127 106 153 181 153c115 0 164 -61 164 -168v-209c0 -17 6 -22 25 -22c22 0 54 7 54 7v-46s-37 -14 -70 -14c-50 0 -60 31 -60 57
v8s-44 -65 -156 -65zM248 44c90 0 144 46 144 46v82s-58 12 -119 12c-72 0 -117 -17 -117 -72c0 -45 29 -68 92 -68zM164 550v54h265v-54h-265z" />
    <glyph glyph-name="abreve" unicode="&#x103;" 
d="M244 -10c-83 0 -146 36 -146 121c0 100 88 124 167 124c66 0 127 -17 127 -17v39c0 73 -8 132 -110 132c-79 0 -117 -35 -117 -100h-59c0 127 106 153 181 153c115 0 164 -61 164 -168v-209c0 -17 6 -22 25 -22c22 0 54 7 54 7v-46s-37 -14 -70 -14c-50 0 -60 31 -60 57
v8s-44 -65 -156 -65zM248 44c90 0 144 46 144 46v82s-58 12 -119 12c-72 0 -117 -17 -117 -72c0 -45 29 -68 92 -68zM296 525c-89 0 -152 91 -161 117l27 23c13 -19 70 -74 134 -74s121 55 134 74l27 -23c-9 -26 -72 -117 -161 -117z" />
    <glyph glyph-name="aogonek" unicode="&#x105;" 
d="M362 -123c0 40 35 70 100 113h-2c-50 0 -60 31 -60 57v8s-44 -65 -156 -65c-83 0 -146 36 -146 121c0 100 88 124 167 124c66 0 127 -17 127 -17v39c0 73 -8 132 -110 132c-79 0 -117 -35 -117 -100h-59c0 127 106 153 181 153c115 0 164 -61 164 -168v-209
c0 -17 6 -22 25 -22c22 0 54 7 54 7v-46c-75 -61 -105 -93 -105 -119c0 -21 18 -28 38 -28s46 7 59 12l8 -37c-14 -8 -44 -20 -80 -20c-52 0 -88 25 -88 65zM248 44c90 0 144 46 144 46v82s-58 12 -119 12c-72 0 -117 -17 -117 -72c0 -45 29 -68 92 -68z" />
    <glyph glyph-name="aeacute" unicode="&#x1fd;" 
d="M250 490l69 191h88l-118 -191h-39zM170 -10c-85 0 -137 49 -137 126c0 92 74 118 140 118c41 0 81 -10 98 -15v55c0 65 -28 116 -91 116c-56 0 -79 -42 -79 -96h-53c0 86 49 148 137 148c96 0 119 -76 119 -76s33 76 120 76c88 0 143 -75 143 -227v-3h-241
c1 -111 37 -171 101 -171c57 0 83 48 83 99h56c-3 -82 -52 -150 -139 -150c-51 0 -93 23 -121 67c-26 -37 -69 -67 -136 -67zM174 42c52 0 93 26 116 47c-10 25 -17 54 -20 87c-15 3 -51 10 -86 10c-62 0 -93 -22 -93 -70c0 -49 33 -74 83 -74zM420 391
c-57 0 -85 -52 -92 -130h182c-7 79 -34 130 -90 130z" />
    <glyph glyph-name="cacute" unicode="&#x107;" 
d="M256 490l69 191h88l-118 -191h-39zM304 -10c-93 0 -204 48 -204 225c0 182 117 227 207 227c74 0 173 -30 181 -153h-60c-8 76 -56 99 -119 99c-95 0 -149 -53 -149 -171s54 -173 149 -173c63 0 111 24 119 100h60c-8 -123 -110 -154 -184 -154z" />
    <glyph glyph-name="ccaron" unicode="&#x10d;" 
d="M266 490l-89 191h40l86 -123l86 123h40l-89 -191h-74zM304 -10c-93 0 -204 48 -204 225c0 182 117 227 207 227c74 0 173 -30 181 -153h-60c-8 76 -56 99 -119 99c-95 0 -149 -53 -149 -171s54 -173 149 -173c63 0 111 24 119 100h60c-8 -123 -110 -154 -184 -154z" />
    <glyph glyph-name="ccircumflex" unicode="&#x109;" 
d="M177 490l89 191h74l89 -191h-40l-86 123l-86 -123h-40zM304 -10c-93 0 -204 48 -204 225c0 182 117 227 207 227c74 0 173 -30 181 -153h-60c-8 76 -56 99 -119 99c-95 0 -149 -53 -149 -171s54 -173 149 -173c63 0 111 24 119 100h60c-8 -123 -110 -154 -184 -154z" />
    <glyph glyph-name="cdotaccent" unicode="&#x10b;" 
d="M304 -10c-93 0 -204 48 -204 225c0 182 117 227 207 227c74 0 173 -30 181 -153h-60c-8 76 -56 99 -119 99c-95 0 -149 -53 -149 -171s54 -173 149 -173c63 0 111 24 119 100h60c-8 -123 -110 -154 -184 -154zM262 539v81h81v-81h-81z" />
    <glyph glyph-name="dcaron" unicode="&#x10f;" 
d="M271 -10c-90 0 -180 60 -180 224c0 158 84 228 179 228c68 0 109 -35 128 -56v246h59v-632h-47v55s-45 -65 -139 -65zM283 45c75 0 115 46 115 46v250s-40 46 -115 46c-92 0 -131 -70 -131 -171s39 -171 131 -171zM554 457c-12 0 -21 5 -18 24l26 151h76l-66 -161
c-5 -12 -10 -14 -18 -14z" />
    <glyph glyph-name="dcroat" unicode="&#x111;" 
d="M281 501v54h138v77h59v-77h37v-54h-37v-501h-47v55s-45 -65 -139 -65c-90 0 -180 60 -180 224c0 158 84 228 179 228c68 0 109 -35 128 -56v115h-138zM304 45c75 0 115 46 115 46v250s-40 46 -115 46c-92 0 -131 -70 -131 -171s39 -171 131 -171z" />
    <glyph glyph-name="ebreve" unicode="&#x115;" 
d="M304 -10c-107 0 -204 63 -204 225c0 173 110 227 204 227c89 0 199 -49 199 -225v-14h-344c5 -107 54 -161 148 -161c75 0 124 35 136 98h59c-16 -118 -122 -150 -198 -150zM300 390c-82 0 -131 -45 -140 -138h282c-11 93 -60 138 -142 138zM289 525
c-89 0 -152 91 -161 117l27 23c13 -19 70 -74 134 -74s121 55 134 74l27 -23c-9 -26 -72 -117 -161 -117z" />
    <glyph glyph-name="ecaron" unicode="&#x11b;" 
d="M252 490l-89 191h40l86 -123l86 123h40l-89 -191h-74zM304 -10c-107 0 -204 63 -204 225c0 173 110 227 204 227c89 0 199 -49 199 -225v-14h-344c5 -107 54 -161 148 -161c75 0 124 35 136 98h59c-16 -118 -122 -150 -198 -150zM300 390c-82 0 -131 -45 -140 -138h282
c-11 93 -60 138 -142 138z" />
    <glyph glyph-name="edotaccent" unicode="&#x117;" 
d="M304 -10c-107 0 -204 63 -204 225c0 173 110 227 204 227c89 0 199 -49 199 -225v-14h-344c5 -107 54 -161 148 -161c75 0 124 35 136 98h59c-16 -118 -122 -150 -198 -150zM300 390c-82 0 -131 -45 -140 -138h282c-11 93 -60 138 -142 138zM248 539v81h81v-81h-81z" />
    <glyph glyph-name="emacron" unicode="&#x113;" 
d="M304 -10c-107 0 -204 63 -204 225c0 173 110 227 204 227c89 0 199 -49 199 -225v-14h-344c5 -107 54 -161 148 -161c75 0 124 35 136 98h59c-16 -118 -122 -150 -198 -150zM300 390c-82 0 -131 -45 -140 -138h282c-11 93 -60 138 -142 138zM157 550v54h265v-54h-265z
" />
    <glyph glyph-name="eogonek" unicode="&#x119;" 
d="M324 -188c-52 0 -88 25 -88 65c0 42 39 70 112 117c-15 -3 -30 -4 -44 -4c-107 0 -204 63 -204 225c0 173 110 227 204 227c89 0 199 -49 199 -225v-14h-344c5 -107 54 -161 148 -161c75 0 124 35 136 98h59c-6 -48 -28 -82 -56 -105c-116 -96 -147 -124 -147 -151
c0 -20 18 -27 38 -27s46 7 59 12l8 -37c-14 -8 -44 -20 -80 -20zM299 390c-81 0 -129 -44 -138 -136h281c-11 91 -61 136 -143 136z" />
    <glyph glyph-name="eng" unicode="&#x14b;" 
d="M228 -183v54c94 0 180 31 180 143v236c0 90 -19 139 -100 139c-79 0 -115 -47 -115 -47v-342h-59v432h47v-55s37 65 141 65c71 0 145 -30 145 -177v-251c0 -122 -83 -197 -239 -197z" />
    <glyph glyph-name="gbreve" unicode="&#x11f;" 
d="M284 -188c-105 0 -180 35 -180 149h59c0 -69 38 -98 119 -98c112 0 125 54 125 121v62c-18 -21 -59 -56 -129 -56c-94 0 -178 65 -178 225c0 163 88 227 181 227s138 -65 138 -65v55h47v-453c0 -105 -42 -167 -182 -167zM292 45c75 0 115 46 115 46v250s-40 46 -115 46
c-92 0 -131 -70 -131 -171s39 -171 131 -171zM282 525c-89 0 -152 91 -161 117l27 23c13 -19 70 -74 134 -74s121 55 134 74l27 -23c-9 -26 -72 -117 -161 -117z" />
    <glyph glyph-name="gcircumflex" unicode="&#x11d;" 
d="M156 490l89 191h74l89 -191h-40l-86 123l-86 -123h-40zM284 -188c-105 0 -180 35 -180 149h59c0 -69 38 -98 119 -98c112 0 125 54 125 121v62c-18 -21 -59 -56 -129 -56c-94 0 -178 65 -178 225c0 163 88 227 181 227s138 -65 138 -65v55h47v-453
c0 -105 -42 -167 -182 -167zM292 45c75 0 115 46 115 46v250s-40 46 -115 46c-92 0 -131 -70 -131 -171s39 -171 131 -171z" />
    <glyph glyph-name="gcommaaccent" unicode="&#x123;" 
d="M332 671c14 0 21 -6 18 -24l-26 -151h-76l66 161c5 12 10 14 18 14zM284 -188c-105 0 -180 35 -180 149h59c0 -69 38 -98 119 -98c112 0 125 54 125 121v62c-18 -21 -59 -56 -129 -56c-94 0 -178 65 -178 225c0 163 88 227 181 227s138 -65 138 -65v55h47v-453
c0 -105 -42 -167 -182 -167zM292 45c75 0 115 46 115 46v250s-40 46 -115 46c-92 0 -131 -70 -131 -171s39 -171 131 -171z" />
    <glyph glyph-name="gdotaccent" unicode="&#x121;" 
d="M284 -188c-105 0 -180 35 -180 149h59c0 -69 38 -98 119 -98c112 0 125 54 125 121v62c-18 -21 -59 -56 -129 -56c-94 0 -178 65 -178 225c0 163 88 227 181 227s138 -65 138 -65v55h47v-453c0 -105 -42 -167 -182 -167zM292 45c75 0 115 46 115 46v250s-40 46 -115 46
c-92 0 -131 -70 -131 -171s39 -171 131 -171zM241 539v81h81v-81h-81z" />
    <glyph glyph-name="hbar" unicode="&#x127;" 
d="M85 501v54h49v77h59v-77h126v-54h-126v-113c18 21 50 54 127 54c73 0 147 -29 147 -177v-265h-59v250c0 90 -19 139 -100 139c-79 0 -115 -47 -115 -47v-342h-59v501h-49z" />
    <glyph glyph-name="hcircumflex" unicode="&#x125;" 
d="M40 632l89 191h74l89 -191h-40l-86 123l-86 -123h-40zM134 0v632h59v-244c18 21 50 54 127 54c73 0 147 -29 147 -177v-265h-59v250c0 90 -19 139 -100 139c-79 0 -115 -47 -115 -47v-342h-59z" />
    <glyph glyph-name="ibreve" unicode="&#x12d;" 
d="M118 0v54h160v324h-160v54h219v-378h147v-54h-366zM308 525c-89 0 -152 91 -161 117l27 23c13 -19 70 -74 134 -74s121 55 134 74l27 -23c-9 -26 -72 -117 -161 -117z" />
    <glyph glyph-name="imacron" unicode="&#x12b;" 
d="M118 0v54h160v324h-160v54h219v-378h147v-54h-366zM176 550v54h265v-54h-265z" />
    <glyph glyph-name="iogonek" unicode="&#x12f;" 
d="M118 0v54h160v324h-160v54h219v-378h147v-54h-135c-75 -61 -105 -89 -105 -115c0 -21 18 -28 38 -28s46 7 59 12l8 -37c-14 -8 -44 -20 -80 -20c-52 0 -88 25 -88 65c0 44 43 72 122 123h-185zM267 551v81h81v-81h-81z" />
    <glyph glyph-name="itilde" unicode="&#x129;" 
d="M118 0v54h160v324h-160v54h219v-378h147v-54h-366zM167 520l-32 15s44 114 114 114c52 0 74 -61 115 -61s74 61 74 61l32 -15s-45 -114 -115 -114c-51 0 -74 62 -115 62c-42 0 -73 -62 -73 -62z" />
    <glyph glyph-name="dotlessj" unicode="&#x237;" 
d="M152 -183v54c94 0 180 31 180 143v364h-168v54h227v-424c0 -121 -83 -191 -239 -191z" />
    <glyph glyph-name="jcircumflex" unicode="&#x135;" 
d="M152 -183v54c94 0 180 31 180 143v364h-168v54h227v-424c0 -121 -83 -191 -239 -191zM235 490l89 191h74l89 -191h-40l-86 123l-86 -123h-40z" />
    <glyph glyph-name="kcommaaccent" unicode="&#x137;" 
d="M279 -214c-12 0 -21 5 -18 24l26 151h76l-66 -161c-5 -12 -10 -14 -18 -14zM134 0v632h59v-406l242 206h77l-194 -163l203 -269h-73l-171 235l-84 -70v-165h-59z" />
    <glyph glyph-name="kgreenlandic" unicode="&#x138;" 
d="M134 0v432h59v-206l242 206h77l-194 -163l203 -269h-73l-171 235l-84 -70v-165h-59z" />
    <glyph glyph-name="lacute" unicode="&#x13a;" 
d="M255 674l69 191h88l-118 -191h-39zM118 0v54h153v524h-153v54h212v-578h154v-54h-366z" />
    <glyph glyph-name="lcaron" unicode="&#x13e;" 
d="M438 457c-12 0 -21 5 -18 24l26 151h76l-66 -161c-5 -12 -10 -14 -18 -14zM118 0v54h153v524h-153v54h212v-578h154v-54h-366z" />
    <glyph glyph-name="lcommaaccent" unicode="&#x13c;" 
d="M269 -214c-12 0 -21 5 -18 24l26 151h76l-66 -161c-5 -12 -10 -14 -18 -14zM118 0v54h153v524h-153v54h212v-578h154v-54h-366z" />
    <glyph glyph-name="ldot" unicode="&#x140;" 
d="M118 0v54h153v524h-153v54h212v-578h154v-54h-366zM474 229v107h107v-107h-107z" />
    <glyph glyph-name="nacute" unicode="&#x144;" 
d="M253 490l69 191h88l-118 -191h-39zM134 0v432h47v-55s37 65 141 65c71 0 145 -30 145 -177v-265h-59v250c0 90 -19 139 -100 139c-79 0 -115 -47 -115 -47v-342h-59z" />
    <glyph glyph-name="napostrophe" unicode="&#x149;" 
d="M92 449c-13 0 -22 5 -19 25l27 156h78l-68 -167c-5 -12 -10 -14 -18 -14zM134 0v432h47v-55s37 65 141 65c71 0 145 -30 145 -177v-265h-59v250c0 90 -19 139 -100 139c-79 0 -115 -47 -115 -47v-342h-59z" />
    <glyph glyph-name="ncaron" unicode="&#x148;" 
d="M263 490l-89 191h40l86 -123l86 123h40l-89 -191h-74zM134 0v432h47v-55s37 65 141 65c71 0 145 -30 145 -177v-265h-59v250c0 90 -19 139 -100 139c-79 0 -115 -47 -115 -47v-342h-59z" />
    <glyph glyph-name="ncommaaccent" unicode="&#x146;" 
d="M269 -214c-12 0 -21 5 -18 24l26 151h76l-66 -161c-5 -12 -10 -14 -18 -14zM134 0v432h47v-55s37 65 141 65c71 0 145 -30 145 -177v-265h-59v250c0 90 -19 139 -100 139c-79 0 -115 -47 -115 -47v-342h-59z" />
    <glyph glyph-name="obreve" unicode="&#x14f;" 
d="M299 -10c-95 0 -199 51 -199 225c0 177 107 227 201 227c95 0 199 -51 199 -225c0 -177 -107 -227 -201 -227zM300 45c91 0 139 57 139 171s-48 171 -139 171s-139 -57 -139 -171s48 -171 139 -171zM300 525c-89 0 -152 91 -161 117l27 23c13 -19 70 -74 134 -74
s121 55 134 74l27 -23c-9 -26 -72 -117 -161 -117z" />
    <glyph glyph-name="ohungarumlaut" unicode="&#x151;" 
d="M184 490l69 191h88l-118 -191h-39zM370 490l69 191h88l-118 -191h-39zM299 -10c-95 0 -199 51 -199 225c0 177 107 227 201 227c95 0 199 -51 199 -225c0 -177 -107 -227 -201 -227zM300 45c91 0 139 57 139 171s-48 171 -139 171s-139 -57 -139 -171s48 -171 139 -171z
" />
    <glyph glyph-name="omacron" unicode="&#x14d;" 
d="M168 550v54h265v-54h-265zM299 -10c-95 0 -199 51 -199 225c0 177 107 227 201 227c95 0 199 -51 199 -225c0 -177 -107 -227 -201 -227zM300 45c91 0 139 57 139 171s-48 171 -139 171s-139 -57 -139 -171s48 -171 139 -171z" />
    <glyph glyph-name="oslashacute" unicode="&#x1ff;" 
d="M299 -10c-51 0 -106 15 -144 56l-49 -46h-74l94 88c-16 32 -26 74 -26 128c0 176 108 226 201 226c51 0 105 -15 144 -56l49 46h74l-94 -88c16 -33 26 -75 26 -128c0 -176 -108 -226 -201 -226zM161 216c0 -33 4 -61 12 -84l229 214c-24 27 -58 41 -102 41
c-91 0 -139 -57 -139 -171zM299 45c92 0 140 57 140 171c0 33 -4 60 -12 84l-229 -214c23 -28 57 -41 101 -41zM253 490l69 191h88l-118 -191h-39z" />
    <glyph glyph-name="racute" unicode="&#x155;" 
d="M265 490l69 191h88l-118 -191h-39zM118 0v54h115v324h-115v54h162v-93s33 103 151 103c42 0 75 -13 75 -13v-60s-31 13 -72 13c-105 0 -142 -84 -142 -84v-244h192v-54h-366z" />
    <glyph glyph-name="rcaron" unicode="&#x159;" 
d="M274 490l-89 191h40l86 -123l86 123h40l-89 -191h-74zM118 0v54h115v324h-115v54h162v-93s33 103 151 103c42 0 75 -13 75 -13v-60s-31 13 -72 13c-105 0 -142 -84 -142 -84v-244h192v-54h-366z" />
    <glyph glyph-name="rcommaaccent" unicode="&#x157;" 
d="M230 -214c-12 0 -21 5 -18 24l26 151h76l-66 -161c-5 -12 -10 -14 -18 -14zM118 0v54h115v324h-115v54h162v-93s33 103 151 103c42 0 75 -13 75 -13v-60s-31 13 -72 13c-105 0 -142 -84 -142 -84v-244h192v-54h-366z" />
    <glyph glyph-name="sacute" unicode="&#x15b;" 
d="M254 490l69 191h88l-118 -191h-39zM310 -10c-119 0 -194 49 -200 147h58c6 -54 47 -93 146 -93c68 0 115 18 115 70c0 57 -58 66 -158 90c-81 19 -147 39 -147 118c0 86 76 120 173 120c102 0 178 -38 186 -136h-58c-12 72 -77 82 -129 82c-74 0 -112 -20 -112 -62
c0 -54 63 -59 160 -82c87 -21 145 -44 145 -125c0 -96 -81 -129 -179 -129z" />
    <glyph glyph-name="scedilla" unicode="&#x15f;" 
d="M310 -188c-40 0 -67 15 -76 21l10 34c12 -6 32 -12 51 -12c27 0 41 11 41 24c0 28 -60 43 -78 47l14 66c-97 9 -157 58 -162 145h58c6 -54 47 -93 146 -93c68 0 115 18 115 70c0 57 -58 66 -158 90c-78 19 -147 37 -147 118c0 86 76 120 173 120c102 0 178 -38 186 -136
h-58c-12 72 -77 82 -129 82c-74 0 -112 -20 -112 -62c0 -54 63 -59 160 -82c87 -21 145 -44 145 -125c0 -96 -81 -129 -178 -129l-7 -35c54 -16 91 -40 91 -79c0 -35 -29 -64 -85 -64z" />
    <glyph glyph-name="scircumflex" unicode="&#x15d;" 
d="M175 490l89 191h74l89 -191h-40l-86 123l-86 -123h-40zM310 -10c-119 0 -194 49 -200 147h58c6 -54 47 -93 146 -93c68 0 115 18 115 70c0 57 -58 66 -158 90c-81 19 -147 39 -147 118c0 86 76 120 173 120c102 0 178 -38 186 -136h-58c-12 72 -77 82 -129 82
c-74 0 -112 -20 -112 -62c0 -54 63 -59 160 -82c87 -21 145 -44 145 -125c0 -96 -81 -129 -179 -129z" />
    <glyph glyph-name="scommaaccent" unicode="&#x219;" 
d="M266 -214c-12 0 -21 5 -18 24l26 151h76l-66 -161c-5 -12 -10 -14 -18 -14zM310 -10c-119 0 -194 49 -200 147h58c6 -54 47 -93 146 -93c68 0 115 18 115 70c0 57 -58 66 -158 90c-81 19 -147 39 -147 118c0 86 76 120 173 120c102 0 178 -38 186 -136h-58
c-12 72 -77 82 -129 82c-74 0 -112 -20 -112 -62c0 -54 63 -59 160 -82c87 -21 145 -44 145 -125c0 -96 -81 -129 -179 -129z" />
    <glyph glyph-name="tbar" unicode="&#x167;" 
d="M77 378v54h144v200h59v-200h212v-54h-212v-97h122v-54h-122v-55c0 -96 22 -128 99 -128c54 0 102 16 102 16v-54s-35 -16 -104 -16c-100 0 -156 34 -156 180v57h-83v54h83v97h-144z" />
    <glyph glyph-name="tcaron" unicode="&#x165;" 
d="M77 312v54h144v266h59v-266h212v-54h-212v-140c0 -96 22 -128 99 -128c54 0 102 16 102 16v-54s-35 -16 -104 -16c-100 0 -156 34 -156 180v142h-144zM387 457c-12 0 -21 5 -18 24l26 151h76l-66 -161c-5 -12 -10 -14 -18 -14z" />
    <glyph glyph-name="tcommaaccent" unicode="&#x163;" 
d="M308 -214c-12 0 -21 5 -18 24l26 151h76l-66 -161c-5 -12 -10 -14 -18 -14zM77 378v54h144v200h59v-200h212v-54h-212v-206c0 -96 22 -128 99 -128c54 0 102 16 102 16v-54s-35 -16 -104 -16c-100 0 -156 34 -156 180v208h-144z" />
    <glyph glyph-name="uni021B" unicode="&#x21b;" 
d="M308 -214c-12 0 -21 5 -18 24l26 151h76l-66 -161c-5 -12 -10 -14 -18 -14zM77 378v54h144v200h59v-200h212v-54h-212v-206c0 -96 22 -128 99 -128c54 0 102 16 102 16v-54s-35 -16 -104 -16c-100 0 -156 34 -156 180v208h-144z" />
    <glyph glyph-name="ubreve" unicode="&#x16d;" 
d="M279 -10c-71 0 -145 30 -145 177v265h59v-250c0 -90 19 -139 100 -139c79 0 115 47 115 47v342h59v-432h-47v55s-37 -65 -141 -65zM300 525c-89 0 -152 91 -161 117l27 23c13 -19 70 -74 134 -74s121 55 134 74l27 -23c-9 -26 -72 -117 -161 -117z" />
    <glyph glyph-name="uhungarumlaut" unicode="&#x171;" 
d="M279 -10c-71 0 -145 30 -145 177v265h59v-250c0 -90 19 -139 100 -139c79 0 115 47 115 47v342h59v-432h-47v55s-37 -65 -141 -65zM189 490l69 191h88l-118 -191h-39zM375 490l69 191h88l-118 -191h-39z" />
    <glyph glyph-name="umacron" unicode="&#x16b;" 
d="M279 -10c-71 0 -145 30 -145 177v265h59v-250c0 -90 19 -139 100 -139c79 0 115 47 115 47v342h59v-432h-47v55s-37 -65 -141 -65zM168 550v54h265v-54h-265z" />
    <glyph glyph-name="uogonek" unicode="&#x173;" 
d="M387 -188c-52 0 -88 25 -88 65c0 44 42 72 121 123v55s-37 -65 -141 -65c-71 0 -145 30 -145 177v265h59v-250c0 -90 19 -139 100 -139c79 0 115 47 115 47v342h59v-432c-75 -61 -105 -89 -105 -115c0 -21 18 -28 38 -28s46 7 59 12l8 -37c-14 -8 -44 -20 -80 -20z" />
    <glyph glyph-name="uring" unicode="&#x16f;" 
d="M300 476c-72 0 -129 57 -129 127s57 127 129 127s129 -57 129 -127s-57 -127 -129 -127zM300 521c46 0 82 36 82 82s-36 82 -82 82s-82 -36 -82 -82s36 -82 82 -82zM279 -10c-71 0 -145 30 -145 177v265h59v-250c0 -90 19 -139 100 -139c79 0 115 47 115 47v342h59v-432
h-47v55s-37 -65 -141 -65z" />
    <glyph glyph-name="utilde" unicode="&#x169;" 
d="M279 -10c-71 0 -145 30 -145 177v265h59v-250c0 -90 19 -139 100 -139c79 0 115 47 115 47v342h59v-432h-47v55s-37 -65 -141 -65zM160 520l-32 15s44 114 114 114c52 0 74 -61 115 -61s74 61 74 61l32 -15s-45 -114 -115 -114c-51 0 -74 62 -115 62
c-42 0 -73 -62 -73 -62z" />
    <glyph glyph-name="wacute" unicode="&#x1e83;" 
d="M253 490l69 191h88l-118 -191h-39zM420 55l60 377h58l-75 -432h-78l-85 276l-85 -276h-78l-75 432h59l59 -377l87 284h66z" />
    <glyph glyph-name="wcircumflex" unicode="&#x175;" 
d="M174 490l89 191h74l89 -191h-40l-86 123l-86 -123h-40zM420 55l60 377h58l-75 -432h-78l-85 276l-85 -276h-78l-75 432h59l59 -377l87 284h66z" />
    <glyph glyph-name="wdieresis" unicode="&#x1e85;" 
d="M160 551v81h81v-81h-81zM361 551v81h81v-81h-81zM420 55l60 377h58l-75 -432h-78l-85 276l-85 -276h-78l-75 432h59l59 -377l87 284h66z" />
    <glyph glyph-name="wgrave" unicode="&#x1e81;" 
d="M420 55l60 377h58l-75 -432h-78l-85 276l-85 -276h-78l-75 432h59l59 -377l87 284h66zM309 490l-118 191h88l69 -191h-39z" />
    <glyph glyph-name="ycircumflex" unicode="&#x177;" 
d="M88 -129c91 0 140 36 178 127l-185 434h65l153 -375l152 375h64l-186 -437c-56 -131 -121 -178 -241 -178v54zM174 490l89 191h74l89 -191h-40l-86 123l-86 -123h-40z" />
    <glyph glyph-name="ygrave" unicode="&#x1ef3;" 
d="M88 -129c91 0 140 36 178 127l-185 434h65l153 -375l152 375h64l-186 -437c-56 -131 -121 -178 -241 -178v54zM310 490l-118 191h88l69 -191h-39z" />
    <glyph glyph-name="zacute" unicode="&#x17a;" 
d="M253 490l69 191h88l-118 -191h-39zM118 0v44l278 334h-273v54h355v-44l-278 -333h283v-55h-365z" />
    <glyph glyph-name="zdotaccent" unicode="&#x17c;" 
d="M118 0v44l278 334h-273v54h355v-44l-278 -333h283v-55h-365zM259 539v81h81v-81h-81z" />
    <glyph glyph-name="ij" unicode="&#x133;" 
d="M228 -183v54c94 0 180 31 180 143v418h59v-424c0 -121 -83 -191 -239 -191zM134 0v432h59v-432h-59zM397 551v81h81v-81h-81zM123 551v81h81v-81h-81z" />
    <glyph glyph-name="uni0259" unicode="&#x259;" 
d="M296 442c107 0 204 -63 204 -225c0 -173 -110 -227 -204 -227c-89 0 -199 49 -199 225v14h343c-4 106 -54 161 -147 161c-75 0 -124 -35 -136 -98h-59c16 118 122 150 198 150zM300 42c82 0 130 44 139 138h-282c10 -93 61 -138 143 -138z" />
    <glyph glyph-name="uni2116" unicode="&#x2116;" 
d="M336 0h-92l-136 492l5 -147v-345h-59v558h92l136 -492l-5 147v345h59v-558zM382 194v42h206v-42h-206zM484 327c48 0 62 47 62 102s-14 102 -62 102s-62 -47 -62 -102s14 -102 62 -102zM484 289c-64 0 -109 40 -109 139c0 103 48 141 109 141c64 0 109 -40 109 -139
c0 -103 -48 -141 -109 -141z" />
    <glyph glyph-name="uni0400" unicode="&#x400;" 
d="M134 0v558h344v-55h-281v-190h247v-55h-247v-203h281v-55h-344zM318 597l-118 191h88l69 -191h-39z" />
    <glyph glyph-name="uni0401" unicode="&#x401;" 
d="M169 658v81h81v-81h-81zM370 658v81h81v-81h-81zM134 0v558h344v-55h-281v-190h247v-55h-247v-203h281v-55h-344z" />
    <glyph glyph-name="uni0402" unicode="&#x402;" 
d="M299 -3v55c11 -2 25 -3 37 -3c84 0 122 43 122 102c0 67 -48 107 -138 107h-73v-258h-63v503h-147v55h357v-55h-147v-190h77c114 0 199 -58 199 -160c0 -96 -76 -159 -182 -159c-13 0 -33 1 -42 3z" />
    <glyph glyph-name="uni0403" unicode="&#x403;" 
d="M134 0v558h349v-55h-286v-503h-63zM265 597l69 191h88l-118 -191h-39z" />
    <glyph glyph-name="uni0404" unicode="&#x404;" 
d="M310 -10c-144 0 -221 100 -221 288c0 189 78 291 226 291c85 0 189 -34 195 -179h-63c-10 84 -54 125 -133 125c-122 0 -154 -99 -159 -202h269v-55h-270c3 -108 33 -214 160 -214c79 0 123 41 133 125h63c-6 -136 -106 -179 -200 -179z" />
    <glyph glyph-name="uni0405" unicode="&#x405;" 
d="M300 -10c-118 0 -200 55 -200 166h63c4 -69 51 -109 139 -109c79 0 135 33 135 98c0 46 -29 72 -84 91l-119 42c-74 26 -123 69 -123 144c0 97 82 147 186 147c106 0 184 -51 184 -164h-62c-3 91 -72 107 -124 107c-79 0 -119 -37 -119 -89c0 -41 25 -69 76 -87l119 -42
c89 -31 130 -70 130 -145c0 -111 -90 -159 -201 -159z" />
    <glyph glyph-name="uni0406" unicode="&#x406;" 
d="M133 0v55h136v448h-136v55h335v-55h-136v-448h136v-55h-335z" />
    <glyph glyph-name="uni0407" unicode="&#x407;" 
d="M133 0v55h136v448h-136v55h335v-55h-136v-448h136v-55h-335zM160 658v81h81v-81h-81zM361 658v81h81v-81h-81z" />
    <glyph glyph-name="uni0408" unicode="&#x408;" 
d="M293 -10c-132 0 -187 78 -187 187c0 9 0 21 2 34h63c-1 -7 -2 -23 -2 -36c0 -74 33 -129 123 -129c94 0 123 59 123 162v350h63v-350c0 -142 -55 -218 -185 -218z" />
    <glyph glyph-name="uni0409" unicode="&#x409;" 
d="M139 202l18 356h224v-245h15c113 0 199 -56 199 -155s-86 -158 -199 -158h-78v503h-100l-16 -312c-6 -122 -47 -196 -185 -196v55c85 0 117 40 122 152zM392 258h-11v-203h11c90 0 138 39 138 102s-48 101 -138 101z" />
    <glyph glyph-name="uni040A" unicode="&#x40a;" 
d="M54 0v558h63v-245h156v245h63v-245h45c113 0 199 -56 199 -155s-86 -158 -199 -158h-108v258h-156v-258h-63zM377 258h-41v-203h41c90 0 138 39 138 102s-48 101 -138 101z" />
    <glyph glyph-name="uni040B" unicode="&#x40b;" 
d="M394 503h-147v-198c23 5 70 13 114 13c116 0 162 -55 162 -177v-141h-63v135c0 90 -18 127 -114 127c-39 0 -76 -6 -99 -11v-251h-63v503h-147v55h357v-55z" />
    <glyph glyph-name="uni040C" unicode="&#x40c;" 
d="M134 0v558h63v-277l247 277h81l-216 -237l240 -321h-79l-201 277l-72 -78v-199h-63zM263 597l69 191h88l-118 -191h-39z" />
    <glyph glyph-name="uni040D" unicode="&#x40d;" 
d="M221 0h-87v558h60v-345l-6 -140l191 485h87v-558h-60v345l6 140zM339 597l-118 191h88l69 -191h-39z" />
    <glyph glyph-name="uni040E" unicode="&#x40e;" 
d="M129 51c83 0 132 28 169 97l-230 410h79l117 -222l68 -131l51 131l90 222h70l-158 -376c-58 -138 -130 -187 -256 -187v56zM312 632c-89 0 -152 91 -161 117l27 23c13 -19 70 -74 134 -74s121 55 134 74l27 -23c-9 -26 -72 -117 -161 -117z" />
    <glyph glyph-name="uni040F" unicode="&#x40f;" 
d="M268 -132v132h-134v558h63v-503h206v503h63v-558h-135v-132h-63z" />
    <glyph glyph-name="uni0410" unicode="&#x410;" 
d="M67 0l198 558h70l198 -558h-70l-47 139h-233l-48 -139h-68zM299 485l-99 -291h197z" />
    <glyph glyph-name="uni0411" unicode="&#x411;" 
d="M134 0v558h349v-55h-286v-190h115c113 0 199 -56 199 -155s-86 -158 -199 -158h-178zM308 258h-111v-203h111c90 0 138 39 138 102s-48 101 -138 101z" />
    <glyph glyph-name="uni0412" unicode="&#x412;" 
d="M134 0v558h160c110 0 194 -53 194 -149c0 -50 -23 -92 -82 -120c58 -20 105 -62 105 -133c0 -96 -87 -156 -199 -156h-178zM197 258v-203h115c95 0 134 48 134 105c0 63 -48 98 -138 98h-111zM197 503v-190h88c89 0 138 27 138 92c0 58 -40 98 -133 98h-93z" />
    <glyph glyph-name="uni0413" unicode="&#x413;" 
d="M134 0v558h349v-55h-286v-503h-63z" />
    <glyph glyph-name="uni0414" unicode="&#x414;" 
d="M476 558v-504h77v-166h-59v112h-408v-112h-59v166h10c85 0 108 20 124 131l53 373h262zM223 176c-9 -62 -21 -100 -49 -122h240v449h-145z" />
    <glyph glyph-name="uni0415" unicode="&#x415;" 
d="M134 0v558h344v-55h-281v-190h247v-55h-247v-203h281v-55h-344z" />
    <glyph glyph-name="uni0416" unicode="&#x416;" 
d="M330 558v-272l45 68l137 204h72l-156 -222l172 -336h-65l-146 289l-59 -74v-215h-60v214l-60 75l-145 -289h-65l172 336l-156 222h72l137 -204l45 -68v272h60z" />
    <glyph glyph-name="uni0417" unicode="&#x417;" 
d="M310 513c-77 0 -136 -41 -136 -137h-63c0 133 95 193 203 193s187 -59 187 -156c0 -62 -32 -104 -92 -128c64 -23 102 -67 102 -134c0 -93 -73 -161 -199 -161c-113 0 -207 55 -207 194h63c0 -92 53 -138 141 -138c75 0 137 33 137 106c0 74 -63 106 -146 106h-11v51h11
c82 0 136 32 136 101s-55 103 -126 103z" />
    <glyph glyph-name="uni0418" unicode="&#x418;" 
d="M221 0h-87v558h60v-345l-6 -140l191 485h87v-558h-60v345l6 140z" />
    <glyph glyph-name="uni0419" unicode="&#x419;" 
d="M221 0h-87v558h60v-345l-6 -140l191 485h87v-558h-60v345l6 140zM300 632c-89 0 -152 91 -161 117l27 23c13 -19 70 -74 134 -74s121 55 134 74l27 -23c-9 -26 -72 -117 -161 -117z" />
    <glyph glyph-name="uni041A" unicode="&#x41a;" 
d="M134 0v558h63v-277l247 277h81l-216 -237l240 -321h-79l-201 277l-72 -78v-199h-63z" />
    <glyph glyph-name="uni041B" unicode="&#x41b;" 
d="M141 185l53 373h272v-558h-63v503h-154l-46 -327c-17 -121 -48 -181 -186 -181v55c85 0 108 24 124 135z" />
    <glyph glyph-name="uni041C" unicode="&#x41c;" 
d="M327 160h-54l-117 331l4 -134v-357h-60v558h92l71 -203l38 -116l38 116l71 203h90v-558h-60v357l4 134z" />
    <glyph glyph-name="uni041D" unicode="&#x41d;" 
d="M134 0v558h63v-245h206v245h63v-558h-63v258h-206v-258h-63z" />
    <glyph glyph-name="uni041E" unicode="&#x41e;" 
d="M299 -10c-144 0 -210 118 -210 287c0 175 70 292 212 292c144 0 210 -119 210 -288c0 -175 -70 -291 -212 -291zM300 46c117 0 146 116 146 233s-29 234 -146 234s-146 -117 -146 -234s29 -233 146 -233z" />
    <glyph glyph-name="uni041F" unicode="&#x41f;" 
d="M134 0v558h332v-558h-63v503h-206v-503h-63z" />
    <glyph glyph-name="uni0420" unicode="&#x420;" 
d="M134 0v558h148c142 0 228 -55 228 -170c0 -113 -85 -170 -228 -170h-85v-218h-63zM197 503v-230h86c118 0 162 50 162 115s-44 115 -162 115h-86z" />
    <glyph glyph-name="uni0421" unicode="&#x421;" 
d="M310 -10c-144 0 -221 100 -221 288c0 189 78 291 226 291c85 0 189 -34 195 -179h-63c-10 84 -54 125 -133 125c-135 0 -160 -121 -160 -236s25 -235 160 -235c79 0 123 41 133 125h63c-6 -136 -106 -179 -200 -179z" />
    <glyph glyph-name="uni0422" unicode="&#x422;" 
d="M268 0v503h-191v55h446v-55h-192v-503h-63z" />
    <glyph glyph-name="uni0423" unicode="&#x423;" 
d="M129 51c83 0 132 28 169 97l-230 410h79l117 -222l68 -131l51 131l90 222h70l-158 -376c-58 -138 -130 -187 -256 -187v56z" />
    <glyph glyph-name="uni0424" unicode="&#x424;" 
d="M331 558v-79c144 0 228 -85 228 -199s-85 -201 -228 -201v-79h-62v79c-144 0 -228 85 -228 199s85 201 228 201v79h62zM106 279c0 -79 44 -145 163 -145v290c-119 0 -163 -66 -163 -145zM494 279c0 79 -44 145 -163 145v-290c119 0 163 66 163 145z" />
    <glyph glyph-name="uni0425" unicode="&#x425;" 
d="M338 287l199 -287h-76l-100 150l-60 91l-60 -91l-100 -150h-78l199 287l-188 271h76l89 -134l60 -91l60 91l89 134h78z" />
    <glyph glyph-name="uni0426" unicode="&#x426;" 
d="M446 -132v132h-312v558h63v-503h206v503h63v-503h43v-187h-63z" />
    <glyph glyph-name="uni0427" unicode="&#x427;" 
d="M403 0v253c-23 -5 -71 -13 -115 -13c-115 0 -161 55 -161 177v141h63v-135c0 -90 18 -127 114 -127c39 0 76 6 99 11v251h63v-558h-63z" />
    <glyph glyph-name="uni0428" unicode="&#x428;" 
d="M538 558v-558h-476v558h62v-503h145v503h62v-503h145v503h62z" />
    <glyph glyph-name="uni0429" unicode="&#x429;" 
d="M518 -132v132h-456v558h62v-503h145v503h62v-503h145v503h62v-503h43v-187h-63z" />
    <glyph glyph-name="uni042A" unicode="&#x42a;" 
d="M77 503v55h205v-245h30c113 0 199 -56 199 -155s-86 -158 -199 -158h-93v503h-142zM308 258h-26v-203h26c90 0 138 39 138 102s-48 101 -138 101z" />
    <glyph glyph-name="uni042B" unicode="&#x42b;" 
d="M90 0v558h63v-245h30c113 0 199 -56 199 -155s-86 -158 -199 -158h-93zM447 0v558h63v-558h-63zM179 258h-26v-203h26c90 0 138 39 138 102s-48 101 -138 101z" />
    <glyph glyph-name="uni042C" unicode="&#x42c;" 
d="M134 0v558h63v-245h115c113 0 199 -56 199 -155s-86 -158 -199 -158h-178zM308 258h-111v-203h111c90 0 138 39 138 102s-48 101 -138 101z" />
    <glyph glyph-name="uni042D" unicode="&#x42d;" 
d="M290 569c144 0 221 -100 221 -288c0 -189 -78 -291 -226 -291c-85 0 -189 34 -195 179h63c10 -84 54 -125 133 -125c126 0 156 106 159 214h-269v55h269c-5 104 -37 202 -159 202c-79 0 -123 -41 -133 -125h-63c6 136 106 179 200 179z" />
    <glyph glyph-name="uni042E" unicode="&#x42e;" 
d="M380 -10c-129 0 -165 117 -168 268h-84v-258h-63v558h63v-245h84c6 143 44 256 170 256c134 0 170 -127 170 -287c0 -168 -40 -292 -172 -292zM381 45c88 0 106 100 106 235s-18 234 -106 234s-106 -100 -106 -235s18 -234 106 -234z" />
    <glyph glyph-name="uni042F" unicode="&#x42f;" 
d="M152 0h-80l186 227c-92 21 -149 77 -149 165c0 109 86 166 228 166h129v-558h-63v220h-77zM403 273v230h-67c-118 0 -162 -50 -162 -115s44 -115 162 -115h67z" />
    <glyph glyph-name="uni0430" unicode="&#x430;" 
d="M244 -10c-83 0 -146 36 -146 121c0 100 88 124 167 124c66 0 127 -17 127 -17v39c0 73 -8 132 -110 132c-79 0 -117 -35 -117 -100h-59c0 127 106 153 181 153c115 0 164 -61 164 -168v-209c0 -17 6 -22 25 -22c22 0 54 7 54 7v-46s-37 -14 -70 -14c-50 0 -60 31 -60 57
v8s-44 -65 -156 -65zM248 44c90 0 144 46 144 46v82s-58 12 -119 12c-72 0 -117 -17 -117 -72c0 -45 29 -68 92 -68z" />
    <glyph glyph-name="uni0431" unicode="&#x431;" 
d="M100 264c0 230 60 291 161 318l209 55v-57l-182 -48c-92 -24 -118 -73 -128 -163c30 50 80 73 144 73c96 0 196 -51 196 -224c0 -180 -109 -228 -202 -228c-75 0 -122 31 -151 68c-36 46 -47 108 -47 206zM300 45c91 0 139 57 139 171s-48 171 -139 171
s-139 -57 -139 -171s48 -171 139 -171z" />
    <glyph glyph-name="uni0432" unicode="&#x432;" 
d="M134 0v432h167c102 0 162 -43 162 -116c0 -41 -19 -71 -59 -90c47 -16 80 -52 80 -105c0 -72 -61 -121 -166 -121h-184zM193 195v-143h122c88 0 109 34 109 72c0 47 -30 71 -113 71h-118zM193 380v-133h97c83 0 112 19 112 65c0 38 -20 68 -108 68h-101z" />
    <glyph glyph-name="uni0433" unicode="&#x433;" 
d="M154 0v432h309v-54h-250v-378h-59z" />
    <glyph glyph-name="uni0434" unicode="&#x434;" 
d="M158 146l45 286h266v-381h65v-163h-60v112h-369v-112h-59v163h11c69 0 89 17 101 95zM254 380l-38 -243c-7 -44 -18 -73 -38 -86h233v329h-157z" />
    <glyph glyph-name="uni0435" unicode="&#x435;" 
d="M304 -10c-107 0 -204 63 -204 225c0 173 110 227 204 227c89 0 199 -49 199 -225v-14h-344c5 -107 54 -161 148 -161c75 0 124 35 136 98h59c-16 -118 -122 -150 -198 -150zM300 390c-82 0 -131 -45 -140 -138h282c-11 93 -60 138 -142 138z" />
    <glyph glyph-name="uni0436" unicode="&#x436;" 
d="M272 0v161l-49 48l-155 -209h-68l185 244l-176 188h70l123 -131l70 -82v213h56v-213l71 82l122 131h70l-177 -188l186 -244h-68l-156 209l-48 -48v-161h-56z" />
    <glyph glyph-name="uni0437" unicode="&#x437;" 
d="M301 389c-65 0 -119 -33 -119 -105h-59c0 107 88 158 181 158c92 0 165 -49 165 -123c0 -48 -30 -82 -76 -99c42 -13 85 -49 85 -103c0 -69 -69 -127 -176 -127c-95 0 -184 47 -184 159h60c0 -65 51 -106 124 -106c57 0 115 25 115 78c0 51 -52 74 -120 74h-18v49h18
c67 0 112 23 112 70c0 49 -50 75 -108 75z" />
    <glyph glyph-name="uni0438" unicode="&#x438;" 
d="M390 432h77v-432h-56v246l4 123l-204 -369h-77v432h56v-246l-4 -123z" />
    <glyph glyph-name="uni0439" unicode="&#x439;" 
d="M390 432h77v-432h-56v246l4 123l-204 -369h-77v432h56v-246l-4 -123zM300 525c-89 0 -152 91 -161 117l27 23c13 -19 70 -74 134 -74s121 55 134 74l27 -23c-9 -26 -72 -117 -161 -117z" />
    <glyph glyph-name="uni043A" unicode="&#x43a;" 
d="M134 0v432h59v-206l242 206h77l-194 -163l203 -269h-73l-171 235l-84 -70v-165h-59z" />
    <glyph glyph-name="uni043B" unicode="&#x43b;" 
d="M168 170l37 262h262v-432h-59v378h-152l-30 -216c-16 -111 -45 -167 -172 -167v54c78 0 99 19 114 121z" />
    <glyph glyph-name="uni043C" unicode="&#x43c;" 
d="M325 103h-50l-111 278l4 -112v-269h-56v432h86l70 -175l33 -94l32 94l70 175h85v-432h-56v269l4 112z" />
    <glyph glyph-name="uni043D" unicode="&#x43d;" 
d="M467 0h-59v193h-215v-193h-59v432h59v-185h215v185h59v-432z" />
    <glyph glyph-name="uni043E" unicode="&#x43e;" 
d="M299 -10c-95 0 -199 51 -199 225c0 177 107 227 201 227c95 0 199 -51 199 -225c0 -177 -107 -227 -201 -227zM300 45c91 0 139 57 139 171s-48 171 -139 171s-139 -57 -139 -171s48 -171 139 -171z" />
    <glyph glyph-name="uni043F" unicode="&#x43f;" 
d="M134 0v432h333v-432h-59v378h-215v-378h-59z" />
    <glyph glyph-name="uni0440" unicode="&#x440;" 
d="M134 -178v610h47v-55s45 65 139 65c93 0 180 -64 180 -225c0 -158 -84 -227 -179 -227c-68 0 -109 35 -128 56v-224h-59zM308 45c92 0 131 70 131 171s-39 171 -131 171c-75 0 -115 -46 -115 -46v-250s40 -46 115 -46z" />
    <glyph glyph-name="uni0441" unicode="&#x441;" 
d="M304 -10c-93 0 -204 48 -204 225c0 182 117 227 207 227c74 0 173 -30 181 -153h-60c-8 76 -56 99 -119 99c-95 0 -149 -53 -149 -171s54 -173 149 -173c63 0 111 24 119 100h60c-8 -123 -110 -154 -184 -154z" />
    <glyph glyph-name="uni0442" unicode="&#x442;" 
d="M329 0h-59v378h-193v54h445v-54h-193v-378z" />
    <glyph glyph-name="uni0443" unicode="&#x443;" 
d="M88 -129c91 0 140 36 178 127l-185 434h65l153 -375l152 375h64l-186 -437c-56 -131 -121 -178 -241 -178v54z" />
    <glyph glyph-name="uni0444" unicode="&#x444;" 
d="M330 632v-235c18 23 52 45 99 45c81 0 144 -65 144 -224c0 -160 -63 -228 -145 -228c-46 0 -80 22 -98 45v-213h-59v213c-18 -23 -52 -45 -99 -45c-81 0 -144 65 -144 225c0 159 63 227 145 227c46 0 80 -22 98 -45v235h59zM413 45c71 0 99 69 99 171s-28 171 -99 171
c-41 0 -75 -23 -83 -33v-276c7 -9 41 -33 83 -33zM188 387c-71 0 -99 -69 -99 -171s28 -171 99 -171c41 0 75 23 83 33v276c-7 9 -41 33 -83 33z" />
    <glyph glyph-name="uni0445" unicode="&#x445;" 
d="M458 0l-160 183l-157 -183h-71l194 222l-185 210h73l149 -172l148 172h71l-184 -211l195 -221h-73z" />
    <glyph glyph-name="uni0446" unicode="&#x446;" 
d="M506 54v-166h-59v112h-313v432h59v-378h215v378h59v-378h39z" />
    <glyph glyph-name="uni0447" unicode="&#x447;" 
d="M408 0v193c-24 -5 -75 -14 -121 -14c-111 0 -159 53 -159 167v86h59v-81c0 -85 21 -119 118 -119c37 0 79 5 103 10v190h59v-432h-59z" />
    <glyph glyph-name="uni0448" unicode="&#x448;" 
d="M539 432v-432h-477v432h59v-378h150v378h59v-378h150v378h59z" />
    <glyph glyph-name="uni0449" unicode="&#x449;" 
d="M578 54v-166h-59v112h-457v432h59v-378h150v378h59v-378h150v378h59v-378h39z" />
    <glyph glyph-name="uni044A" unicode="&#x44a;" 
d="M62 378v54h206v-185h80c91 0 158 -40 158 -123s-67 -124 -158 -124h-139v378h-147zM343 193h-75v-139h75c71 0 102 22 102 70s-31 69 -102 69z" />
    <glyph glyph-name="uni044B" unicode="&#x44b;" 
d="M144 432v-185h80c91 0 158 -40 158 -123s-67 -124 -158 -124h-139v432h59zM515 0h-59v432h59v-432zM219 193h-75v-139h75c71 0 102 22 102 70s-31 69 -102 69z" />
    <glyph glyph-name="uni044C" unicode="&#x44c;" 
d="M193 432v-185h144c91 0 158 -40 158 -123s-67 -124 -158 -124h-203v432h59zM332 193h-139v-139h139c71 0 102 22 102 70s-31 69 -102 69z" />
    <glyph glyph-name="uni044D" unicode="&#x44d;" 
d="M224 193v51h215c-9 98 -61 144 -148 144c-63 0 -111 -24 -119 -100h-60c8 123 110 154 184 154c93 0 204 -48 204 -225c0 -182 -117 -227 -207 -227c-74 0 -173 30 -181 153h60c8 -76 56 -99 119 -99c89 0 141 46 148 149h-215z" />
    <glyph glyph-name="uni044E" unicode="&#x44e;" 
d="M378 -10c-108 0 -165 65 -170 205h-84v-195h-59v432h59v-185h85c7 123 60 195 173 195c117 0 170 -78 170 -224c0 -144 -52 -228 -174 -228zM379 390c-82 1 -113 -65 -113 -174s31 -175 113 -174c82 -1 113 65 113 174s-31 175 -113 174z" />
    <glyph glyph-name="uni044F" unicode="&#x44f;" 
d="M129 303c0 84 74 129 195 129h143v-432h-59v166h-93l-146 -166h-78l158 173c-72 19 -120 62 -120 130zM408 216v164h-85c-97 0 -133 -36 -133 -82s36 -82 133 -82h85z" />
    <glyph glyph-name="uni0450" unicode="&#x450;" 
d="M304 -10c-107 0 -204 63 -204 225c0 173 110 227 204 227c89 0 199 -49 199 -225v-14h-344c5 -107 54 -161 148 -161c75 0 124 35 136 98h59c-16 -118 -122 -150 -198 -150zM300 390c-82 0 -131 -45 -140 -138h282c-11 93 -60 138 -142 138zM299 490l-118 191h88l69 -191
h-39z" />
    <glyph glyph-name="uni0451" unicode="&#x451;" 
d="M149 551v81h81v-81h-81zM350 551v81h81v-81h-81zM304 -10c-107 0 -204 63 -204 225c0 173 110 227 204 227c89 0 199 -49 199 -225v-14h-344c5 -107 54 -161 148 -161c75 0 124 35 136 98h59c-16 -118 -122 -150 -198 -150zM300 390c-82 0 -131 -45 -140 -138h282
c-11 93 -60 138 -142 138z" />
    <glyph glyph-name="uni0452" unicode="&#x452;" 
d="M85 501v54h49v77h59v-77h126v-54h-126v-113c18 21 50 54 127 54c73 0 147 -29 147 -177v-251c0 -122 -83 -197 -239 -197v54c94 0 180 31 180 143v236c0 90 -19 139 -100 139c-79 0 -115 -47 -115 -47v-342h-59v501h-49z" />
    <glyph glyph-name="uni0453" unicode="&#x453;" 
d="M154 0v432h309v-54h-250v-378h-59zM262 490l69 191h88l-118 -191h-39z" />
    <glyph glyph-name="uni0454" unicode="&#x454;" 
d="M304 -10c-93 0 -204 48 -204 225c0 182 117 227 207 227c74 0 173 -30 181 -153h-60c-8 76 -56 99 -119 99c-88 0 -140 -45 -148 -144h215v-51h-215c7 -102 59 -149 148 -149c63 0 111 24 119 100h60c-8 -123 -110 -154 -184 -154z" />
    <glyph glyph-name="uni0455" unicode="&#x455;" 
d="M310 -10c-119 0 -194 49 -200 147h58c6 -54 47 -93 146 -93c68 0 115 18 115 70c0 57 -58 66 -158 90c-81 19 -147 39 -147 118c0 86 76 120 173 120c102 0 178 -38 186 -136h-58c-12 72 -77 82 -129 82c-74 0 -112 -20 -112 -62c0 -54 63 -59 160 -82
c87 -21 145 -44 145 -125c0 -96 -81 -129 -179 -129z" />
    <glyph glyph-name="uni0456" unicode="&#x456;" 
d="M118 0v54h160v324h-160v54h219v-378h147v-54h-366zM267 551v81h81v-81h-81z" />
    <glyph glyph-name="uni0457" unicode="&#x457;" 
d="M167 551v81h81v-81h-81zM368 551v81h81v-81h-81zM118 0v54h160v324h-160v54h219v-378h147v-54h-366z" />
    <glyph glyph-name="uni0458" unicode="&#x458;" 
d="M152 -183v54c94 0 180 31 180 143v364h-168v54h227v-424c0 -121 -83 -191 -239 -191zM321 551v81h81v-81h-81z" />
    <glyph glyph-name="uni0459" unicode="&#x459;" 
d="M131 170l37 262h209v-185h60c91 0 158 -40 158 -123s-67 -124 -158 -124h-119v378h-99l-30 -216c-16 -111 -45 -167 -172 -167v54c78 0 99 19 114 121zM432 193h-55v-139h55c71 0 102 22 102 70s-31 69 -102 69z" />
    <glyph glyph-name="uni045A" unicode="&#x45a;" 
d="M49 0v432h59v-185h165v185h59v-185h95c91 0 158 -40 158 -123s-67 -124 -158 -124h-154v193h-165v-193h-59zM422 193h-90v-139h90c71 0 102 22 102 70s-31 69 -102 69z" />
    <glyph glyph-name="uni045B" unicode="&#x45b;" 
d="M85 501v54h49v77h59v-77h126v-54h-126v-113c18 21 50 54 127 54c73 0 147 -29 147 -177v-265h-59v250c0 90 -19 139 -100 139c-79 0 -115 -47 -115 -47v-342h-59v501h-49z" />
    <glyph glyph-name="uni045C" unicode="&#x45c;" 
d="M134 0v432h59v-206l242 206h77l-194 -163l203 -269h-73l-171 235l-84 -70v-165h-59zM255 490l69 191h88l-118 -191h-39z" />
    <glyph glyph-name="uni045D" unicode="&#x45d;" 
d="M390 432h77v-432h-56v246l4 123l-204 -369h-77v432h56v-246l-4 -123zM309 490l-118 191h88l69 -191h-39z" />
    <glyph glyph-name="uni045E" unicode="&#x45e;" 
d="M88 -129c91 0 140 36 178 127l-185 434h65l153 -375l152 375h64l-186 -437c-56 -131 -121 -178 -241 -178v54zM300 525c-89 0 -152 91 -161 117l27 23c13 -19 70 -74 134 -74s121 55 134 74l27 -23c-9 -26 -72 -117 -161 -117z" />
    <glyph glyph-name="uni045F" unicode="&#x45f;" 
d="M467 432v-432h-138v-112h-59v112h-136v432h59v-378h215v378h59z" />
    <glyph glyph-name="uni0472" unicode="&#x472;" 
d="M299 -10c-144 0 -210 118 -210 287c0 175 70 292 212 292c144 0 210 -119 210 -288c0 -175 -70 -291 -212 -291zM300 46c114 0 145 111 146 226c-18 -25 -43 -49 -75 -49c-50 0 -104 57 -147 57c-27 0 -50 -23 -69 -49c8 -99 44 -185 145 -185zM375 282c27 0 50 23 69 49
c-9 97 -45 182 -144 182c-113 0 -144 -109 -146 -222c17 24 43 48 75 48c49 0 103 -57 146 -57z" />
    <glyph glyph-name="uni0473" unicode="&#x473;" 
d="M299 -10c-95 0 -199 51 -199 225c0 177 107 227 201 227c95 0 199 -51 199 -225c0 -177 -107 -227 -201 -227zM378 215c23 0 43 17 59 39c-10 89 -57 133 -137 133c-89 0 -137 -54 -139 -162c15 21 38 41 66 41c44 0 113 -51 151 -51zM300 45c87 0 134 52 138 156
c-15 -20 -37 -39 -64 -39c-44 0 -113 51 -151 51c-24 0 -44 -19 -60 -41c11 -85 58 -127 137 -127z" />
    <glyph glyph-name="uni0490" unicode="&#x490;" 
d="M134 0v558h286v132h63v-187h-286v-503h-63z" />
    <glyph glyph-name="uni0491" unicode="&#x491;" 
d="M154 0v432h250v112h59v-166h-250v-378h-59z" />
    <glyph glyph-name="uni0492" unicode="&#x492;" 
d="M57 258v55h87v245h349v-55h-286v-190h207v-55h-207v-258h-63v258h-87z" />
    <glyph glyph-name="uni0493" unicode="&#x493;" 
d="M94 196v53h70v183h309v-54h-250v-129h180v-53h-180v-196h-59v196h-70z" />
    <glyph glyph-name="uni0496" unicode="&#x496;" 
d="M330 558v-272l45 68l137 204h72l-156 -222l144 -281h38v-187h-63v132h-12l-146 289l-59 -74v-215h-60v214l-60 75l-145 -289h-65l172 336l-156 222h72l137 -204l45 -68v272h60z" />
    <glyph glyph-name="uni0497" unicode="&#x497;" 
d="M272 0v161l-49 48l-155 -209h-68l185 244l-176 188h70l123 -131l70 -82v213h56v-213l71 82l122 131h70l-177 -188l145 -190h41v-166h-59v112h-9l-156 209l-48 -48v-161h-56z" />
    <glyph glyph-name="uni0498" unicode="&#x498;" 
d="M310 513c-77 0 -136 -41 -136 -137h-63c0 133 95 193 203 193s187 -59 187 -156c0 -62 -32 -104 -92 -128c64 -23 102 -67 102 -134c0 -86 -63 -151 -170 -160v-123h-63v124c-96 10 -173 68 -173 192h64c0 -86 55 -138 143 -138c71 0 134 33 134 107
c0 73 -63 105 -146 105h-11v51h11c82 0 136 32 136 101s-55 103 -126 103z" />
    <glyph glyph-name="uni0499" unicode="&#x499;" 
d="M301 389c-65 0 -119 -33 -119 -105h-59c0 107 88 158 181 158c92 0 165 -49 165 -123c0 -48 -30 -82 -76 -99c42 -13 85 -49 85 -103c0 -64 -59 -118 -152 -126v-103h-59v104c-81 10 -149 59 -149 157h60c0 -65 51 -106 124 -106c57 0 115 25 115 78c0 51 -52 74 -120 74
h-18v49h18c67 0 112 23 112 70c0 49 -50 75 -108 75z" />
    <glyph glyph-name="uni049A" unicode="&#x49a;" 
d="M134 0v558h63v-277l247 277h81l-216 -237l199 -266h43v-187h-63v132h-18l-201 277l-72 -78v-199h-63z" />
    <glyph glyph-name="uni049B" unicode="&#x49b;" 
d="M134 0v432h59v-206l242 206h77l-194 -163l162 -215h43v-166h-59v112h-16l-171 235l-84 -70v-165h-59z" />
    <glyph glyph-name="uni049C" unicode="&#x49c;" 
d="M477 0l-166 258h-25v-97h-55v97h-39v-258h-63v558h63v-245h39v95h55v-95h21l149 245h74l-166 -269l190 -289h-77z" />
    <glyph glyph-name="uni049D" unicode="&#x49d;" 
d="M451 0l-139 195h-23v-87h-53v87h-43v-195h-59v432h59v-185h43v87h53v-87h21l126 185h70l-144 -209l164 -223h-75z" />
    <glyph glyph-name="uni04A0" unicode="&#x4a0;" 
d="M12 503v55h205v-277l247 277h81l-216 -237l240 -321h-79l-201 277l-72 -78v-199h-63v503h-142z" />
    <glyph glyph-name="uni04A1" unicode="&#x4a1;" 
d="M22 378v54h206v-206l242 206h77l-194 -163l203 -269h-73l-171 235l-84 -70v-165h-59v378h-147z" />
    <glyph glyph-name="uni04A2" unicode="&#x4a2;" 
d="M134 0v558h63v-245h206v245h63v-503h43v-187h-63v132h-43v258h-206v-258h-63z" />
    <glyph glyph-name="uni04A3" unicode="&#x4a3;" 
d="M506 54v-166h-59v112h-39v193h-215v-193h-59v432h59v-185h215v185h59v-378h39z" />
    <glyph glyph-name="uni04AA" unicode="&#x4aa;" 
d="M281 -132v124c-126 12 -192 111 -192 286c0 189 78 291 226 291c85 0 189 -34 195 -179h-63c-10 84 -54 125 -133 125c-135 0 -160 -121 -160 -236s25 -235 160 -235c79 0 123 41 133 125h63c-6 -120 -84 -168 -166 -177v-124h-63z" />
    <glyph glyph-name="uni04AB" unicode="&#x4ab;" 
d="M336 -112h-59v104c-86 8 -177 63 -177 223c0 182 117 227 207 227c74 0 173 -30 181 -153h-60c-8 76 -56 99 -119 99c-95 0 -149 -53 -149 -171s54 -173 149 -173c63 0 111 24 119 100h60c-7 -106 -84 -144 -152 -152v-104z" />
    <glyph glyph-name="uni04AE" unicode="&#x4ae;" 
d="M269 0v226l-221 332h73l90 -136l91 -144l90 144l88 136h73l-221 -334v-224h-63z" />
    <glyph glyph-name="uni04AF" unicode="&#x4af;" 
d="M327 -178h-59v171l-187 439h65l93 -228l60 -147l60 147l92 228h64l-188 -442v-168z" />
    <glyph glyph-name="uni04B0" unicode="&#x4b0;" 
d="M116 135v55h153v36l-221 332h73l90 -136l91 -144l90 144l88 136h73l-221 -334v-34h153v-55h-153v-135h-63v135h-153z" />
    <glyph glyph-name="uni04B1" unicode="&#x4b1;" 
d="M116 0v54h126l-161 378h66l153 -374l151 374h64l-161 -378h131v-54h-158v-178h-59v178h-152z" />
    <glyph glyph-name="uni04B2" unicode="&#x4b2;" 
d="M338 287l161 -232h45v-187h-63v132h-20l-100 150l-60 91l-60 -91l-100 -150h-78l199 287l-188 271h76l89 -134l60 -91l60 91l89 134h78z" />
    <glyph glyph-name="uni04B3" unicode="&#x4b3;" 
d="M458 0l-160 183l-157 -183h-71l194 222l-185 210h73l149 -172l148 172h71l-184 -211l147 -167h48v-166h-59v112h-14z" />
    <glyph glyph-name="uni04B6" unicode="&#x4b6;" 
d="M403 0v253c-23 -5 -71 -13 -115 -13c-115 0 -161 55 -161 177v141h63v-135c0 -90 18 -127 114 -127c39 0 76 6 99 11v251h63v-503h43v-187h-63v132h-43z" />
    <glyph glyph-name="uni04B7" unicode="&#x4b7;" 
d="M408 0v193c-24 -5 -75 -14 -121 -14c-111 0 -159 53 -159 167v86h59v-81c0 -85 21 -119 118 -119c37 0 79 5 103 10v190h59v-378h39v-166h-59v112h-39z" />
    <glyph glyph-name="uni04B8" unicode="&#x4b8;" 
d="M403 0v253c-17 -4 -46 -9 -77 -12v-97h-55v96c-103 6 -144 61 -144 177v141h63v-135c0 -79 14 -118 81 -126v94h55v-95c30 2 58 7 77 11v251h63v-558h-63z" />
    <glyph glyph-name="uni04B9" unicode="&#x4b9;" 
d="M408 0v193c-17 -4 -49 -9 -81 -12v-88h-53v87c-102 4 -146 56 -146 166v86h59v-81c0 -75 16 -110 87 -118v86h53v-87c31 2 61 6 81 10v190h59v-432h-59z" />
    <glyph glyph-name="uni04BA" unicode="&#x4ba;" 
d="M197 558v-253c23 5 70 13 114 13c116 0 162 -55 162 -177v-141h-63v135c0 90 -18 127 -114 127c-39 0 -76 -6 -99 -11v-251h-63v558h63z" />
    <glyph glyph-name="uni04BB" unicode="&#x4bb;" 
d="M134 0v632h59v-244c18 21 50 54 127 54c73 0 147 -29 147 -177v-265h-59v250c0 90 -19 139 -100 139c-79 0 -115 -47 -115 -47v-342h-59z" />
    <glyph glyph-name="uni04C1" unicode="&#x4c1;" 
d="M330 558v-272l45 68l137 204h72l-156 -222l172 -336h-65l-146 289l-59 -74v-215h-60v214l-60 75l-145 -289h-65l172 336l-156 222h72l137 -204l45 -68v272h60zM300 632c-89 0 -152 91 -161 117l27 23c13 -19 70 -74 134 -74s121 55 134 74l27 -23
c-9 -26 -72 -117 -161 -117z" />
    <glyph glyph-name="uni04C2" unicode="&#x4c2;" 
d="M272 0v161l-49 48l-155 -209h-68l185 244l-176 188h70l123 -131l70 -82v213h56v-213l71 82l122 131h70l-177 -188l186 -244h-68l-156 209l-48 -48v-161h-56zM300 525c-89 0 -152 91 -161 117l27 23c13 -19 70 -74 134 -74s121 55 134 74l27 -23
c-9 -26 -72 -117 -161 -117z" />
    <glyph glyph-name="uni04D8" unicode="&#x4d8;" 
d="M88 279v14h358c-3 115 -39 221 -151 221c-86 0 -130 -62 -144 -142h-64c22 120 94 197 210 197c143 0 213 -118 213 -290s-70 -289 -213 -289s-209 117 -209 289zM299 45c105 0 139 93 146 194h-292c7 -103 41 -194 146 -194z" />
    <glyph glyph-name="uni04D9" unicode="&#x4d9;" 
d="M296 442c107 0 204 -63 204 -225c0 -173 -110 -227 -204 -227c-89 0 -199 49 -199 225v14h343c-4 106 -54 161 -147 161c-75 0 -124 -35 -136 -98h-59c16 118 122 150 198 150zM300 42c82 0 130 44 139 138h-282c10 -93 61 -138 143 -138z" />
    <glyph glyph-name="uni04E2" unicode="&#x4e2;" 
d="M221 0h-87v558h60v-345l-6 -140l191 485h87v-558h-60v345l6 140zM168 657v54h265v-54h-265z" />
    <glyph glyph-name="uni04E3" unicode="&#x4e3;" 
d="M390 432h77v-432h-56v246l4 123l-204 -369h-77v432h56v-246l-4 -123zM168 550v54h265v-54h-265z" />
    <glyph glyph-name="uni04E8" unicode="&#x4e8;" 
d="M299 -10c-144 0 -210 118 -210 287c0 175 70 292 212 292c144 0 210 -119 210 -288c0 -175 -70 -291 -212 -291zM300 46c108 0 141 99 145 207h-291c5 -108 37 -207 146 -207zM300 513c-108 0 -141 -99 -146 -205h291c-4 106 -38 205 -145 205z" />
    <glyph glyph-name="uni04E9" unicode="&#x4e9;" 
d="M299 -10c-95 0 -199 51 -199 225c0 177 107 227 201 227c95 0 199 -51 199 -225c0 -177 -107 -227 -201 -227zM300 387c-84 0 -131 -49 -138 -146h276c-7 97 -54 146 -138 146zM300 45c84 0 131 49 138 146h-276c7 -97 54 -146 138 -146z" />
    <glyph glyph-name="uni04EE" unicode="&#x4ee;" 
d="M129 51c83 0 132 28 169 97l-230 410h79l117 -222l68 -131l51 131l90 222h70l-158 -376c-58 -138 -130 -187 -256 -187v56zM180 657v54h265v-54h-265z" />
    <glyph glyph-name="uni04EF" unicode="&#x4ef;" 
d="M88 -129c91 0 140 36 178 127l-185 434h65l153 -375l152 375h64l-186 -437c-56 -131 -121 -178 -241 -178v54zM168 550v54h265v-54h-265z" />
    <glyph glyph-name="uni2190" unicode="&#x2190;" 
d="M240 90l-192 191l192 192l38 -38l-125 -125h399v-57h-399l125 -125z" />
    <glyph glyph-name="uni2191" unicode="&#x2191;" 
d="M271 29v399l-125 -125l-38 38l191 192l192 -192l-38 -38l-125 125v-399h-57z" />
    <glyph glyph-name="uni2192" unicode="&#x2192;" 
d="M360 90l-38 38l125 125h-399v57h399l-125 125l38 38l192 -192z" />
    <glyph glyph-name="uni2193" unicode="&#x2193;" 
d="M299 29l-191 192l38 38l125 -125v399h57v-399l125 125l38 -38z" />
    <glyph glyph-name="uni2196" unicode="&#x2196;" 
d="M448 76l-282 282v-176h-55v270h272v-53h-177l282 -283z" />
    <glyph glyph-name="uni2197" unicode="&#x2197;" 
d="M151 76l-40 40l282 283h-177v53h272v-270h-55v176z" />
    <glyph glyph-name="uni2198" unicode="&#x2198;" 
d="M216 77v53h177l-282 283l40 40l282 -282v176h55v-270h-272z" />
    <glyph glyph-name="uni2199" unicode="&#x2199;" 
d="M111 77v270h55v-176l282 282l40 -40l-282 -283h177v-53h-272z" />
    <glyph glyph-name="parenleft.alt" 
d="M412 -178l-176 278c-24 39 -47 80 -47 127s23 88 47 127l176 278h63l-185 -302c-15 -25 -38 -63 -38 -103s23 -78 38 -103l185 -302h-63z" />
    <glyph glyph-name="parenright.alt" 
d="M188 632l176 -278c24 -39 47 -80 47 -127s-23 -88 -47 -127l-176 -278h-63l185 302c15 25 38 63 38 103s-23 78 -38 103l-185 302h63z" />
    <glyph glyph-name="slash.alt" 
d="M34 -178l301 810h57l-301 -810h-57zM224 -178l301 810h57l-301 -810h-57z" />
    <glyph glyph-name="zero.alt" 
d="M284 238l-26 26c-11 11 -13 19 0 32l26 27c13 14 22 10 32 0l27 -27c10 -10 14 -19 0 -32l-27 -26c-10 -10 -19 -14 -32 0zM299 -10c-144 0 -210 118 -210 287c0 175 70 292 212 292c144 0 210 -119 210 -288c0 -175 -70 -291 -212 -291zM300 46c117 0 146 116 146 233
s-29 234 -146 234s-146 -117 -146 -234s29 -233 146 -233z" />
    <glyph glyph-name="three.alt" 
d="M312 -10c-114 0 -207 55 -207 194h63c0 -92 53 -138 142 -138c75 0 136 33 136 108c0 80 -69 124 -176 124h-17l-13 44l168 181h-278v55h359v-50l-170 -182c107 -8 192 -69 192 -173c0 -96 -73 -163 -199 -163z" />
    <glyph glyph-name="endash.alt" 
d="M150 135v54h300v-54h-300zM150 243v54h300v-54h-300z" />
    <glyph glyph-name="emdash.alt" 
d="M0 135v54h600v-54h-600zM0 243v54h600v-54h-600z" />
    <glyph glyph-name="scissors" 
d="M144 2c-67 0 -122 55 -122 122s55 122 122 122c18 0 35 -4 50 -12l46 46l-46 45c-15 -6 -31 -11 -51 -11c-66 0 -121 55 -121 122c0 68 55 122 122 122s122 -54 122 -122c0 -19 -4 -37 -12 -53l28 -28l97 97c40 40 76 62 112 62c28 0 56 -14 87 -44l-189 -190l189 -189
c-31 -31 -60 -45 -88 -45c-36 0 -71 23 -111 62l-97 96l-28 -28c8 -16 12 -34 12 -52c0 -67 -55 -122 -122 -122zM144 64c33 0 60 27 60 60s-27 60 -60 60s-60 -27 -60 -60s27 -60 60 -60zM144 376c33 0 60 27 60 60c0 34 -27 60 -60 60s-60 -26 -60 -60
c0 -33 27 -60 60 -60zM315 245c19 0 35 16 35 35s-16 36 -35 36s-35 -17 -35 -36s16 -35 35 -35z" />
  </font>
</defs>
</svg>
